<?xml version="1.0" encoding="UTF-8"?>
<svg width="98px" height="18px" viewBox="0 0 98 18" version="1.1" xmlns="http://www.w3.org/2000/svg" xmlns:xlink="http://www.w3.org/1999/xlink">
    <!-- Generator: Sketch 53.2 (72643) - https://sketchapp.com -->
    <title>gdg</title>
    <desc>Created with Sketch.</desc>
    <defs>
        <polygon id="path-1" points="0 9.50291866 68.4319221 9.50291866 68.4319221 0 0 0"></polygon>
        <radialGradient cx="98.8014706%" cy="97.9036527%" fx="98.8014706%" fy="97.9036527%" r="325.470588%" gradientTransform="translate(0.988015,0.979037),scale(1.000000,0.694342),translate(-0.988015,-0.979037)" id="radialGradient-3">
            <stop stop-color="#BF360C" stop-opacity="0.2" offset="0%"></stop>
            <stop stop-color="#BF360C" stop-opacity="0.02" offset="100%"></stop>
        </radialGradient>
        <radialGradient cx="162.572101%" cy="157.707058%" fx="162.572101%" fy="157.707058%" r="262.642731%" gradientTransform="translate(1.625721,1.577071),scale(1.000000,0.661979),translate(-1.625721,-1.577071)" id="radialGradient-4">
            <stop stop-color="#263238" stop-opacity="0.2" offset="0%"></stop>
            <stop stop-color="#263238" stop-opacity="0.02" offset="100%"></stop>
        </radialGradient>
        <radialGradient cx="-1.24996094%" cy="0.78125%" fx="-1.24996094%" fy="0.78125%" r="167.932252%" gradientTransform="translate(-0.012500,0.007812),scale(1.000000,0.612276),translate(0.012500,-0.007812)" id="radialGradient-5">
            <stop stop-color="#FFFFFF" stop-opacity="0.1" offset="0%"></stop>
            <stop stop-color="#FFFFFF" stop-opacity="0" offset="100%"></stop>
        </radialGradient>
    </defs>
    <g id="Page-1" stroke="none" stroke-width="1" fill="none" fill-rule="evenodd">
        <g id="Group-2" transform="translate(0.400000, 0.800000)">
            <path d="M5.359393,0.25 L5.359393,16.55 L92.6673603,16.55 L97.2688133,8.4 L92.6673603,0.25 L5.359393,0.25 Z" id="Rectangle" stroke="#979797" stroke-width="0.5" fill="#FFFFFF" opacity="0.800000012"></path>
            <g id="Page-1" transform="translate(15.144828, 3.920000)">
                <path d="M12.6072289,7.89708597 C14.4947876,7.89708597 15.6643757,6.80351583 15.6643757,4.75083985 C15.6643757,2.70991583 14.4947876,1.60454817 12.6072289,1.60454817 L11.2087335,1.60454817 L11.2087335,7.89708597 L12.6072289,7.89708597 Z M9.89817859,0.236674488 L12.5610983,0.236674488 C15.2728109,0.236674488 16.9749742,2.1150297 16.9749742,4.75083985 C16.9749742,7.3984475 15.271938,9.26495966 12.5610983,9.26495966 L9.89817859,9.26495966 L9.89817859,0.236674488 Z" id="Fill-1" fill="#777777"></path>
                <path d="M26.6285994,4.34118833 L22.4801164,4.34118833 L22.4801164,5.68182297 L25.4050249,5.68182297 C25.308443,6.36571426 25.081325,6.89887981 24.7410407,7.25494603 C24.307666,7.7072599 23.6306325,8.20498737 22.4427144,8.20498737 C20.6108442,8.20498737 19.1784381,6.66365837 19.1784381,4.75173263 C19.1784381,2.83980689 20.6108442,1.29847789 22.4427144,1.29847789 C23.2780846,1.28722699 24.0839957,1.62051809 24.6853523,2.22583522 L25.5625324,1.31027541 C24.7337523,0.453429856 23.6091165,-0.018652823 22.4427144,0.00056937799 C19.9338107,0.00056937799 17.8243276,2.13227502 17.8243276,4.75173263 C17.8243276,7.37027923 19.9338107,9.50289589 22.4427144,9.50289589 C23.796825,9.50289589 24.8184634,9.0396955 25.6182645,8.17046029 C26.4397562,7.31306813 26.6955913,6.1078088 26.6955913,5.13412689 C26.6983845,4.86815904 26.6759084,4.6025556 26.6285994,4.34118833 M8.80424125,4.34118833 L4.65580196,4.34118833 L4.65580196,5.68182297 L7.58071047,5.68182297 C7.48408492,6.36571426 7.25696688,6.89887981 6.91668261,7.25494603 C6.48330787,7.7072599 5.80627441,8.20498737 4.61839993,8.20498737 C2.78652972,8.20498737 1.35408002,6.66365837 1.35408002,4.75173263 C1.35408002,2.83980689 2.78652972,1.29847789 4.61839993,1.29847789 C5.45377011,1.28722699 6.25968127,1.62051809 6.86103782,2.22583522 L7.73821796,1.31027541 C6.90939423,0.453429856 5.78480207,-0.018652823 4.61839993,0.00056937799 C2.10945262,0.00056937799 1.30928923e-05,2.13227502 1.30928923e-05,4.75173263 C1.30928923e-05,7.37027923 2.10945262,9.50289589 4.61839993,9.50289589 C5.9725105,9.50289589 6.99414889,9.0396955 7.7939064,8.17046029 C8.6153981,7.31306813 8.87127686,6.1078088 8.87127686,5.13412689 C8.87402637,4.86815904 8.85159388,4.6025556 8.80424125,4.34118833" id="Fill-3" fill="#777777"></path>
                <path d="M36.2390049,5.75967288 L34.9895066,2.8319768 L33.8307419,5.75967288 L36.2390049,5.75967288 Z M34.6100309,1.05569967 L35.3892326,1.05569967 L38.8617731,9.18495977 L37.7269685,9.18495977 L36.6947685,6.78956379 L33.3906462,6.78956379 L32.4229505,9.18495977 L31.2835197,9.18495977 L34.6100309,1.05569967 Z" id="Fill-5" fill="#777777"></path>
                <path d="M39.3218879,8.80308478 L39.3218879,7.66906603 C39.6064401,7.87736727 39.8974514,8.04613091 40.1950529,8.17531139 C40.4924798,8.30462852 40.7429031,8.36917321 40.9461921,8.36917321 C41.1568568,8.36917321 41.3378878,8.31515062 41.4895035,8.207151 C41.6409883,8.09919694 41.7167961,7.96992536 41.7167961,7.81947292 C41.7167961,7.66528536 41.6677414,7.53697033 41.5698939,7.43471005 C41.4719154,7.33254086 41.2602906,7.18504919 40.9351068,6.99205282 C40.2846083,6.61407694 39.8586965,6.29108019 39.6573278,6.02292593 C39.4557845,5.75486278 39.3551875,5.46270354 39.3551875,5.14635713 C39.3551875,4.73754373 39.5076324,4.40384268 39.8125222,4.14539062 C40.1174557,3.88698411 40.5100679,3.75771254 40.9905334,3.75771254 C41.4895035,3.75771254 42.0013483,3.90438431 42.5261551,4.19745455 L42.5261551,5.23891522 C41.9274171,4.86093933 41.4376557,4.67190584 41.0570889,4.67190584 C40.8611756,4.67190584 40.7031444,4.71540632 40.5830826,4.80227062 C40.4629771,4.88913493 40.4029244,5.00405818 40.4029244,5.14685818 C40.4029244,5.27057263 40.4573472,5.38836555 40.5661055,5.50028249 C40.6749074,5.61229053 40.8661509,5.74730144 41.1397051,5.90531522 L41.5001524,6.11931024 C42.3504048,6.62068172 42.7756183,7.17593914 42.7756183,7.78521914 C42.7756183,8.22099828 42.6120881,8.57870431 42.2850276,8.85824612 C41.9579236,9.13778794 41.5374671,9.27753608 41.0237893,9.27753608 C40.7207325,9.27753608 40.450888,9.2437378 40.2144304,9.17627789 C39.9778418,9.10886354 39.6803276,8.98442029 39.3218879,8.80308478" id="Fill-7" fill="#777777"></path>
                <path d="M43.2246914,4.70661056 L45.1206295,2.76252635 L45.1206295,3.86188138 L46.7338484,3.86188138 L46.7338484,4.81078396 L45.1206295,4.81078396 L45.1206295,7.41598434 C45.1206295,8.02439889 45.3626298,8.32862894 45.8468486,8.32862894 C46.2090417,8.32862894 46.5915287,8.20332023 46.994397,7.95256616 L46.994397,8.93617803 C46.6063237,9.16379257 46.1831177,9.27753152 45.7249102,9.27753152 C45.262862,9.27753152 44.8784983,9.13678128 44.5718191,8.8551897 C44.4756737,8.77032961 44.3962434,8.67490186 44.3334412,8.5687698 C44.2705517,8.46268329 44.2178746,8.32389171 44.17541,8.15216731 C44.1329454,7.98057956 44.1116912,7.65366549 44.1116912,7.17147066 L44.1116912,4.81078396 L43.2246914,4.81078396 L43.2246914,4.70661056 Z" id="Fill-9" fill="#777777"></path>
                <path d="M50.9692289,9.18497344 L50.9692289,8.5022209 C50.7548546,8.74705344 50.5099739,8.93749899 50.234674,9.073512 C49.9592868,9.20947946 49.6849034,9.27753152 49.4114802,9.27753152 C49.0898751,9.27753152 48.7933211,9.19362798 48.5216872,9.02586645 C48.2500097,8.85805937 48.0449314,8.63049037 47.9063213,8.34311391 C47.7677549,8.05582856 47.6984498,7.57846205 47.6984498,6.91105994 L47.6984498,3.86188138 L48.7073881,3.86188138 L48.7073881,6.89561841 C48.7073881,7.45424655 48.7840688,7.84433879 48.9374302,8.06584961 C49.0907916,8.28731487 49.3596324,8.39809305 49.7440833,8.39809305 C50.2245052,8.39809305 50.6328725,8.15316942 50.9692289,7.66327659 L50.9692289,3.86188138 L51.9781672,3.86188138 L51.9781672,9.18497344 L50.9692289,9.18497344 Z" id="Fill-11" fill="#777777"></path>
                <path d="M54.4784383,3.86186316 L54.4784383,5.08270067 L54.5338648,4.99014258 C55.021706,4.16850737 55.5095472,3.75773531 55.9973884,3.75773531 C56.3779987,3.75773531 56.7753244,3.95833856 57.189278,4.35945397 L56.6570956,5.28521703 C56.3059442,4.93807866 55.9807604,4.7644867 55.6813696,4.7644867 C55.3561421,4.7644867 55.0743394,4.9265089 54.8359615,5.25050775 C54.5975836,5.57455215 54.4784383,5.95835847 54.4784383,6.4019267 L54.4784383,9.18495522 L53.4639137,9.18495522 L53.4639137,3.86186316 L54.4784383,3.86186316 Z" id="Fill-13" fill="#777777"></path>
                <mask id="mask-2" fill="white">
                    <use xlink:href="#path-1"></use>
                </mask>
                <g id="Clip-16"></g>
                <path d="M57.9155364,9.18497799 L58.9244746,9.18497799 L58.9244746,3.86188593 L57.9155364,3.86188593 L57.9155364,9.18497799 Z M58.4144628,1.62268172 C58.5807426,1.62268172 58.7230187,1.68253474 58.8413348,1.80205856 C58.9595636,1.92167349 59.0186998,2.06820861 59.0186998,2.24180057 C59.0186998,2.41156632 58.9595636,2.55810144 58.8413348,2.68154258 C58.7230187,2.80502928 58.5807426,2.86665876 58.4144628,2.86665876 C58.2592248,2.86665876 58.1224477,2.80402718 58.0042189,2.67862737 C57.8859028,2.55331866 57.8268538,2.40769455 57.8268538,2.24180057 C57.8268538,2.07977837 57.8859028,1.93615847 58.0042189,1.81075866 C58.1224477,1.68544995 58.2592248,1.62268172 58.4144628,1.62268172 L58.4144628,1.62268172 Z" id="Fill-15" fill="#777777" mask="url(#mask-2)"></path>
                <path d="M62.5943731,8.13193389 L62.5943731,6.5523427 L61.9180816,6.82427763 C61.5743495,6.96703208 61.3313018,7.11069753 61.1890693,7.25536509 C61.0467496,7.40003265 60.9756115,7.58036605 60.9756115,7.79636528 C60.9756115,8.01619074 61.0429963,8.19556758 61.177984,8.33440471 C61.3128408,8.47328739 61.4875,8.5427515 61.7018743,8.5427515 C62.023392,8.5427515 62.3208189,8.40587303 62.5943731,8.13193389 M63.5866834,5.98533332 L63.5866834,8.2476315 C63.5866834,8.428967 63.645776,8.51961198 63.7641357,8.51961198 C63.8860742,8.51961198 64.0763576,8.42514078 64.3351168,8.23606174 L64.3351168,8.87832011 C64.1059475,9.03259878 63.9221233,9.13777428 63.7835132,9.19366442 C63.6449031,9.24950901 63.4998339,9.27752241 63.3483055,9.27752241 C62.9159345,9.27752241 62.660885,9.10019533 62.5832878,8.74522232 C62.1545392,9.09240624 61.698121,9.26595265 61.2139894,9.26595265 C60.8592157,9.26595265 60.5634909,9.14355916 60.3270333,8.89854442 C60.0904447,8.65366633 59.9722159,8.34597447 59.9722159,7.97569657 C59.9722159,7.64012796 60.0876516,7.34022519 60.3186975,7.07598825 C60.5496124,6.81184241 60.8776767,6.60253906 61.302672,6.44821485 L62.5943731,5.98533332 L62.5943731,5.70178308 C62.5943731,5.06157447 62.2876066,4.74131074 61.6741173,4.74131074 C61.1233866,4.74131074 60.5875818,5.03843495 60.0664411,5.63236452 L60.0664411,4.48099112 C60.4581804,3.99884184 61.0217858,3.75774442 61.7572572,3.75774442 C62.3079442,3.75774442 62.7496111,3.90815131 63.0822579,4.20901064 C63.193111,4.30548605 63.2929225,4.43380107 63.3816051,4.59381906 C63.4702876,4.7538826 63.526587,4.91399169 63.5506779,5.07400968 C63.5746816,5.23416433 63.5866834,5.53793887 63.5866834,5.98533332" id="Fill-17" fill="#777777" mask="url(#mask-2)"></path>
                <path d="M64.9782004,8.80308478 L64.9782004,7.66906603 C65.2627525,7.87736727 65.5537639,8.04613091 65.8513653,8.17531139 C66.1487922,8.30462852 66.3992156,8.36917321 66.6025046,8.36917321 C66.8131692,8.36917321 66.9942003,8.31515062 67.145816,8.207151 C67.2973007,8.09919694 67.3731086,7.96992536 67.3731086,7.81947292 C67.3731086,7.66528536 67.3240539,7.53697033 67.2262063,7.43471005 C67.1282278,7.33254086 66.9166031,7.18504919 66.5914193,6.99205282 C65.9409207,6.61407694 65.5150089,6.29108019 65.3136403,6.02292593 C65.112097,5.75486278 65.0114999,5.46270354 65.0114999,5.14635713 C65.0114999,4.73754373 65.1639449,4.40384268 65.4688347,4.14539062 C65.7737681,3.88698411 66.1663803,3.75771254 66.6468458,3.75771254 C67.145816,3.75771254 67.6576608,3.90438431 68.1824675,4.19745455 L68.1824675,5.23891522 C67.5837296,4.86093933 67.0939681,4.67190584 66.7134014,4.67190584 C66.5174881,4.67190584 66.3594569,4.71540632 66.239395,4.80227062 C66.1192896,4.88913493 66.0592368,5.00405818 66.0592368,5.14685818 C66.0592368,5.27057263 66.1136596,5.38836555 66.2224179,5.50028249 C66.3312198,5.61229053 66.5224634,5.74730144 66.7960175,5.90531522 L67.1564649,6.11931024 C68.0067173,6.62068172 68.4319308,7.17593914 68.4319308,7.78521914 C68.4319308,8.22099828 68.2684006,8.57870431 67.9413401,8.85824612 C67.614236,9.13778794 67.1937796,9.27753608 66.6801018,9.27753608 C66.377045,9.27753608 66.1072005,9.2437378 65.8707428,9.17627789 C65.6341543,9.10886354 65.3366401,8.98442029 64.9782004,8.80308478" id="Fill-18" fill="#777777" mask="url(#mask-2)"></path>
            </g>
            <g id="descarga" transform="translate(0.000000, 0.055082)" fill-rule="nonzero">
                <polygon id="XMLID_30_" fill="#FFC107" points="7.60038814 13.3169395 6.25111755 10.9062295 3.01185272 16.6898361 5.78528284 16.6898361 7.63719796 13.3824835"></polygon>
                <polygon id="Shape" fill="#0F9D58" points="4.73184728 8.37245902 6.18505469 10.9560443 2.9601979 16.6898361 0.0537830842 16.6898361"></polygon>
                <polygon id="Shape" fill="#BF360C" opacity="0.2" points="5.78528284 16.5592492 3.08547237 16.5592492 3.01185272 16.6898361 5.78528284 16.6898361 7.63719796 13.3951295 7.60038814 13.3298361"></polygon>
                <polygon id="Shape" fill="#263238" opacity="0.2" points="0.127865976 16.5245902 0.0537830842 16.6858702 2.99155291 16.6858702 3.0656358 16.5245902"></polygon>
                <polygon id="Shape" fill="#FFFFFF" opacity="0.2" points="0.0537830842 16.6898361 0.127358228 16.6898361 4.7866945 8.43743852 4.74990693 8.37245902"></polygon>
                <polygon id="XMLID_37_" fill="url(#radialGradient-3)" points="7.58341488 13.384918 6.20150598 10.9062295 5.86235618 11.5137641"></polygon>
                <polygon id="XMLID_57_" fill="url(#radialGradient-4)" points="5.84570527 11.6222951 6.18505469 11.008393 4.72889114 8.37245902 4.03373132 9.6320854"></polygon>
                <g id="XMLID_29_" fill="#4285F4">
                    <g id="XMLID_61_" transform="translate(0.043717, 0.006652)">
                        <polygon id="XMLID_67_" points="2.92670535 0 0 0 7.56362461 13.3617184 9.02570481 10.7783055 9.02697729 10.7757052"></polygon>
                    </g>
                </g>
                <path d="M10.0671763,9.07177669 C10.3410334,8.59097253 10.3410334,7.99741914 10.0671763,7.51661498 L5.79500526,0 L3.01185272,0 L9.11822951,10.7409836 L10.0671763,9.07177669 Z" id="Shape" fill="#DB4437"></path>
                <polygon id="Shape" fill="#1A237E" opacity="0.2" points="9.03555815 10.7944148 8.998841 10.7305964 7.57953316 13.2546765 0.127217388 0 0.0537830842 0 7.57953316 13.384918 9.03429204 10.7970196"></polygon>
                <path d="M5.78411512,0.129805566 L10.0694069,7.6585284 C10.1958958,7.88049592 10.2610568,8.12582844 10.2712781,8.37245902 C10.2827771,8.08169455 10.2176162,7.78833397 10.0694069,7.52872284 L5.78411512,0 L0.0537830842,0 L0.127887713,0.129805566 L5.78411512,0.129805566 Z" id="Shape" fill="#FFFFFF" opacity="0.2"></path>
                <path d="M9.12611854,10.8511475 L10.0709148,9.16719687 C10.218024,8.90571385 10.2827014,8.61023803 10.2712877,8.31737705 C10.2611423,8.56578592 10.1964649,8.81288738 10.0709148,9.03645536 L9.08934124,10.7870842 L9.12611854,10.8511475 Z" id="XMLID_20_" fill="#3E2723" opacity="0.2"></path>
                <path d="M10.0666031,7.56258197 L5.78251097,0 L0.0537830842,0 L4.78237854,8.34491803 L0.0537830842,16.6898361 L5.78251097,16.6898361 L10.0666031,9.1272541 C10.3412244,8.64350963 10.3412244,8.04632643 10.0666031,7.56258197 Z" id="XMLID_23_" fill="url(#radialGradient-5)"></path>
            </g>
        </g>
    </g>
</svg>