<?xml version="1.0" encoding="UTF-8"?>
<svg width="98px" height="33px" viewBox="0 0 98 33" version="1.1" xmlns="http://www.w3.org/2000/svg" xmlns:xlink="http://www.w3.org/1999/xlink">
    <!-- Generator: Sketch 53.2 (72643) - https://sketchapp.com -->
    <title>Page 1 Copy 12</title>
    <desc>Created with Sketch.</desc>
    <g id="Page-1" stroke="none" stroke-width="1" fill="none" fill-rule="evenodd">
        <g id="Page-1-Copy-12" fill="#002D63">
            <path d="M13.5351933,0 C13.5582499,0.0169079768 13.5805131,0.0468812084 13.6045118,0.0484182972 C13.6950522,0.0543104709 13.786138,0.0517998925 13.8770254,0.0507751667 C14.0066876,0.0493917867 14.1323831,0.0560525049 14.2601115,0.0974514299 C14.3727168,0.134034143 14.4950405,0.0936599442 14.6188022,0.143871512 C14.7323495,0.189830467 14.871631,0.179685681 14.9983181,0.195107805 C15.2696418,0.228155214 15.5325362,0.295274758 15.7941414,0.363009138 C16.1695915,0.460306859 16.54643,0.556374909 16.9114178,0.694149302 C17.4500985,0.897454913 17.9787631,1.12427798 18.4852142,1.40310589 C19.0088213,1.69131004 19.5133881,2.00989731 19.9865683,2.38264135 C20.3406972,2.66157173 20.7038505,2.92723191 21.0233202,3.25073786 C21.1327521,3.36151073 21.2598359,3.45368482 21.3769038,3.55272458 C21.2603318,3.74578293 19.6146882,5.47065274 18.9453537,6.10603402 C18.9047444,6.07134705 18.8609122,6.03696749 18.8203524,5.99884769 C18.3662621,5.57148577 17.8873798,5.17742744 17.3489471,4.86867753 C17.0065695,4.67239129 16.6614153,4.47953789 16.3075342,4.30702529 C15.9347617,4.12534139 15.5399738,4.00011989 15.1403763,3.89513673 C14.9788812,3.85271307 14.8030067,3.84743574 14.6553456,3.77683212 C14.5311376,3.71739802 14.4047976,3.74875464 14.2792509,3.70156601 C14.1104174,3.63818671 13.9119822,3.6638561 13.728323,3.63629097 C13.2635721,3.5664559 12.7956975,3.57214313 12.3304012,3.59417474 C12.076531,3.6062665 11.8175538,3.61369577 11.5654687,3.68337713 C11.4438391,3.7169369 11.3101111,3.71647577 11.184019,3.73010462 C10.8947459,3.76125629 10.6264468,3.86362641 10.3480822,3.92972122 C9.7401823,4.07420757 9.17150334,4.32823711 8.61829459,4.61639003 C8.23277895,4.81728753 7.87056779,5.06388781 7.51916595,5.32380953 C7.33535804,5.45979065 7.17173082,5.62477151 6.98881543,5.76218725 C6.6804525,5.99387777 6.42806991,6.28602712 6.16869598,6.56803167 C5.76235505,7.009791 5.4143745,7.50119828 5.10968079,8.02355229 C4.97367186,8.25667743 4.82997742,8.48775311 4.72123969,8.73466081 C4.44852766,9.35374894 4.20883858,9.98467266 4.05607026,10.6515643 C3.98838809,10.9467365 3.93672156,11.2452392 3.87345237,11.5408726 C3.82490963,11.767542 3.84965205,12.0099921 3.81300947,12.2405042 C3.76094626,12.5682627 3.78058153,12.8967386 3.76337588,13.2244972 C3.75479784,13.3884533 3.81057985,13.5374485 3.81851329,13.6959223 C3.82600048,13.8450199 3.80170431,13.9918632 3.85798216,14.1446498 C3.90444237,14.2708448 3.88758381,14.4220943 3.90687199,14.5628916 C3.98199176,15.110915 4.12747123,15.636292 4.29665185,16.1587997 C4.38768809,16.4400357 4.50257423,16.70918 4.61255155,16.9816033 C4.83518374,17.5332133 5.15450473,18.0278997 5.46718147,18.5251992 C5.59877742,18.7344482 5.77901528,18.9104448 5.92226347,19.112777 C6.13750764,19.4167619 6.4150789,19.6576749 6.6649327,19.9264605 C6.91880281,20.1993963 7.21576142,20.4201222 7.50870372,20.6444347 C7.94053082,20.9750625 8.39858787,21.265726 8.88619697,21.496648 C9.34658446,21.7146072 9.81708709,21.9078192 10.3115388,22.0426732 C10.5395756,22.104874 10.7753972,22.1435574 11.0008556,22.2269189 C11.1066183,22.2660122 11.2379168,22.2733902 11.3552325,22.280512 C11.5658654,22.2933723 11.7702011,22.3777073 11.9843544,22.3390239 C12.4391389,22.4418551 12.8998735,22.3726861 13.3576826,22.3867249 C13.4843201,22.3906188 13.6119989,22.3551633 13.7393307,22.3391776 C13.8666624,22.3231406 13.9918124,22.3449161 14.1242017,22.2983935 C14.2470709,22.2551501 14.3928479,22.2605811 14.5282618,22.2435194 C14.8068743,22.2084226 15.0780492,22.1399709 15.3463979,22.0683425 C15.9234069,21.9142238 16.4805328,21.6941639 17.010685,21.4126205 C17.4238685,21.1931242 17.8120121,20.9285912 18.1830988,20.6375691 C18.595489,20.3142168 18.971782,19.9498755 19.3204071,19.5573543 C19.5810207,19.2638728 19.7990911,18.9358068 19.9867666,18.5841209 C20.1486584,18.2807508 20.2948816,17.971591 20.419982,17.6513129 C20.5476113,17.3245791 20.6344825,16.9841652 20.7253204,16.6451858 C20.8058944,16.3445825 20.8295955,16.0315288 20.9189955,15.7325137 C20.9398703,15.662525 20.9220697,15.5802395 20.9220697,15.506408 C20.9133429,15.4975441 20.9080374,15.4906784 20.9013932,15.4857598 C20.8952447,15.4811997 20.8878567,15.4766397 20.8805679,15.4757687 C20.8642547,15.4737192 20.8475945,15.4733606 20.831083,15.4733606 C18.1457125,15.4732581 15.4603915,15.4732581 12.7756655,15.4732581 C12.7317341,15.2956219 12.7174539,12.3620879 12.7584599,11.8956839 L24.3215987,11.8956839 C24.3880908,12.0290008 24.3615138,12.1836319 24.4043544,12.3075212 C24.4748133,12.5113392 24.3895288,12.7283249 24.4898372,12.9223568 C24.5104642,12.9622698 24.4933081,13.0231898 24.4933081,13.0743749 C24.4933577,13.714726 24.4960848,14.3551285 24.4911264,14.9954284 C24.4901347,15.1270032 24.4576572,15.2581169 24.4447653,15.3899479 C24.4319231,15.5219326 24.4449637,15.6514579 24.4033627,15.7869779 C24.3610675,15.9247011 24.379612,16.081023 24.3520433,16.2312991 C24.3046409,16.4896325 24.2393388,16.7457627 24.2033408,17.0040961 C24.1131475,17.651108 23.8810448,18.2542616 23.6910389,18.8689434 C23.5780369,19.2347193 23.3993858,19.5812304 23.2285689,19.9248722 C23.0645946,20.2547315 22.8955131,20.5868451 22.6871115,20.887141 C22.4236221,21.2666995 22.1540339,21.6428251 21.8452247,21.9898998 C21.6344927,22.2267652 21.4305537,22.4724944 21.1996905,22.686201 C20.844322,23.0151892 20.4862759,23.3408984 20.1039336,23.6404257 C19.7374086,23.9276052 19.3612148,24.2003359 18.9612702,24.4233675 C18.4651326,24.7000435 17.9675076,24.985071 17.422381,25.158967 C17.2183924,25.2240371 17.0220397,25.3149303 16.8175553,25.3780021 C16.4456753,25.4927714 16.0743406,25.6098976 15.6887754,25.6725084 C15.4619286,25.709296 15.2401889,25.7786187 15.0138875,25.8198127 C14.8960759,25.8412295 14.7763801,25.8417931 14.6559406,25.8658229 C14.4266146,25.9115769 14.1882147,25.9093737 13.9535336,25.9256156 C13.6941596,25.9435483 13.4348849,25.9663997 13.1751639,25.9750074 C12.9193104,25.9835127 12.6629115,25.9742389 12.4068101,25.9778767 C12.235894,25.9801823 12.0689447,25.9632231 11.9004582,25.9295608 C11.7349468,25.8964622 11.5571386,25.9678856 11.3949989,25.8762239 C11.3822062,25.8689995 11.3624222,25.8743794 11.3459107,25.8748405 C11.1107338,25.8807327 10.8853745,25.8186855 10.6557014,25.7809244 C10.4584066,25.7484405 10.262401,25.7126776 10.0671392,25.6698441 C9.41486164,25.5268948 8.78107888,25.3246652 8.16063422,25.0705844 C7.76817682,24.9099074 7.37790112,24.7464636 7.00463272,24.543158 C6.43109453,24.2307191 5.87054735,23.8978369 5.3486757,23.4951196 C5.05766717,23.2707046 4.76943535,23.0444964 4.48606275,22.8097829 C4.29927981,22.6551518 4.14383395,22.4696764 3.96126564,22.3144305 C3.81727369,22.1919245 3.69852,22.0477968 3.57217995,21.9092539 C3.44757535,21.7726067 3.30750053,21.6503056 3.1894906,21.5081249 C2.95218155,21.2224313 2.71402957,20.9361742 2.49714913,20.6341362 C2.26355888,20.3086833 2.04955432,19.9679107 1.83505391,19.6283678 C1.589861,19.2403041 1.38438488,18.8280569 1.19338729,18.4099687 C0.922410705,17.8168574 0.690555896,17.2049423 0.510119701,16.5767342 C0.397663177,16.1850839 0.303701486,15.785697 0.241523144,15.3787784 C0.18911285,15.0359051 0.127331179,14.6957474 0.0870689669,14.3499536 C0.0586573319,14.1056077 0.0895977512,13.8571629 0.0401624979,13.6230131 C-0.0240983731,13.3182084 0.0100154226,13.0168365 0.00228031778,12.7143887 C-0.00153765063,12.5664182 0.0380303856,12.4177818 0.0461125785,12.2687354 C0.0544426914,12.1155389 0.0234031041,11.9559378 0.0540460194,11.8089921 C0.106852985,11.5556799 0.0903910953,11.2943748 0.150288574,11.0453152 C0.219309509,10.7585456 0.264183034,10.4666012 0.323237584,10.1783458 C0.42716566,9.67120901 0.582016508,9.18292714 0.743263694,8.69515763 C0.809805429,8.49390147 0.879371789,8.29244036 0.96554879,8.09963819 C1.14623291,7.69528136 1.33390837,7.29410119 1.5281785,6.89655879 C1.68312852,6.57940613 1.88057202,6.28761544 2.06239657,5.98649975 C2.30134189,5.59064814 2.58853245,5.23189162 2.86045114,4.86181187 C2.99819551,4.67428704 3.15944269,4.50428502 3.31801234,4.334283 C3.5416362,4.09459962 3.77294559,3.86260168 4.00043701,3.62670978 C4.29357765,3.32282733 4.61602243,3.05629613 4.94407021,2.79309529 C5.24330968,2.55295079 5.54651588,2.32105532 5.8657377,2.11196001 C6.09476622,1.96194014 6.33227361,1.82554913 6.5675993,1.68587899 C6.76886078,1.5664472 6.96680013,1.43902253 7.17589588,1.33598635 C7.82812388,1.01452984 8.50028466,0.739032295 9.1933203,0.531217889 C9.57248919,0.417524554 9.95661648,0.308852376 10.3517514,0.24977693 C10.5566325,0.21908639 10.760869,0.179480735 10.9661468,0.146689508 C11.310954,0.091712965 11.6535795,0.0397081273 12.0032459,0.0485207698 C12.0176748,0.0488794238 12.0328475,0.0169079768 12.0476732,0 L13.5351933,0 Z" id="Fill-1"></path>
            <path d="M86.8031747,16.2250952 C86.9084313,16.1834851 86.9964047,16.1512533 87.0823334,16.1142337 C87.2188456,16.0554958 87.353167,15.9916245 87.4899227,15.933627 C87.8349519,15.7872266 88.1807115,15.6425537 88.526471,15.4979302 C88.771453,15.3954104 89.0172139,15.2947169 89.2620498,15.1919997 C89.6797655,15.0168226 90.0975299,14.8417937 90.5143693,14.6643954 C90.7517564,14.563307 90.9862225,14.4548641 91.2241938,14.3550097 C91.4687863,14.2523418 91.7168355,14.1581638 91.9618174,14.0564831 C92.1927782,13.9606762 92.4208179,13.8575641 92.6518273,13.7619053 C92.9762629,13.6274499 93.3031814,13.4990163 93.6269841,13.3630307 C93.6968955,13.3336618 93.758141,13.2833644 93.8122785,13.2496518 C93.8122785,13.2080417 93.8169522,13.1896306 93.8113048,13.1755631 C93.7994744,13.1461942 93.7820939,13.1191945 93.7671477,13.0911583 C93.5826322,12.7442593 93.3309804,12.4591092 93.0122896,12.2324994 C92.714582,12.0207963 92.3884911,11.8705952 92.0462369,11.7513918 C91.777302,11.6577074 91.4946867,11.6234025 91.2170372,11.5976368 C90.8697684,11.5653557 90.5218667,11.5966003 90.174744,11.6820417 C89.6668641,11.8069213 89.1934529,12.0024839 88.7633713,12.2966175 C88.4423923,12.5161194 88.1450255,12.7615845 87.8874829,13.0672682 C87.5334956,13.4875155 87.2668489,13.9492248 87.0671438,14.4570853 C86.9182656,14.8356731 86.8656373,15.2373611 86.8077511,15.6357915 C86.7809257,15.8203962 86.8031747,16.0122568 86.8031747,16.2250952 L86.8031747,16.2250952 Z M98,14.5014595 C97.6673854,14.6356681 97.3267377,14.7527984 97.0043469,14.9088239 C96.6721704,15.0695386 96.3259727,15.1924439 95.9892199,15.3399797 C95.5890307,15.5153542 95.1790559,15.6675297 94.7763351,15.8371785 C94.5239531,15.943499 94.2784842,16.0665523 94.0274654,16.1764267 C93.8271273,16.2641386 93.6233327,16.3437556 93.4207552,16.4260873 C93.1748482,16.5260404 92.9274807,16.6221929 92.6828882,16.7252062 C92.4594736,16.8192856 92.2399051,16.9226938 92.01688,17.0176123 C91.779931,17.1184538 91.5413754,17.2154454 91.3025277,17.3115978 C91.0491719,17.4135253 90.7924082,17.5073084 90.5410972,17.6141719 C90.289056,17.7213315 90.043149,17.8433483 89.7921788,17.9532226 C89.5917921,18.0409346 89.3879975,18.1204528 89.1854686,18.2030807 C88.932405,18.3062422 88.6785624,18.4073799 88.4261803,18.5120715 C88.2025223,18.6048181 87.9800814,18.7005757 87.7576405,18.7962839 C87.6353442,18.8489012 87.514119,18.9041345 87.394111,18.9574428 C87.648976,19.511257 88.0033527,19.9850101 88.4476503,20.3846744 C88.7789018,20.6826087 89.1576696,20.9043812 89.5727076,21.0736351 C89.828595,21.1779812 90.0974325,21.2188509 90.3556081,21.3063654 C90.5456249,21.3708783 91.360414,21.3989639 91.5797877,21.3580448 C91.9473094,21.2895831 92.3191153,21.2570058 92.6787987,21.1250677 C93.1590257,20.9489528 93.5885718,20.7037346 93.9852556,20.3813179 C94.1430431,20.2530818 94.2854949,20.1123577 94.4296019,19.9714362 C94.6713707,19.7350533 94.8730719,19.4653033 95.0620176,19.1849904 C95.074627,19.1662831 95.0982391,19.1551772 95.1216565,19.136618 C96.0175057,19.7423585 96.9120892,20.3473092 97.8134885,20.956801 C97.8003923,20.9971278 97.796108,21.0393795 97.7751249,21.0698838 C97.5981556,21.3278368 97.4187033,21.5833712 97.1989401,21.8079078 C97.0695845,21.9401421 96.9620885,22.0946375 96.8304447,22.2241076 C96.5047434,22.5445005 96.1545048,22.8336488 95.7861555,23.1053731 C95.4207273,23.3748763 95.0349002,23.6044476 94.6336886,23.8047487 C94.1654381,24.0384662 93.6703623,24.2063874 93.1598046,24.327417 C92.9000711,24.3890178 92.6394613,24.4363042 92.3769042,24.4815176 C92.2257865,24.5074807 92.0732083,24.4941536 91.928517,24.5264841 C91.552719,24.6101979 91.1747788,24.5564454 90.7982504,24.5678474 C90.6738607,24.5715988 90.5485947,24.5369977 90.4233774,24.522486 C90.3061443,24.5088628 90.1910048,24.5264841 90.0700717,24.4815669 C89.9569282,24.4396607 89.8231423,24.4529384 89.6969513,24.42969 C89.181087,24.3344754 88.6849401,24.183682 88.1943919,23.9956221 C87.617915,23.77459 87.0903177,23.4676229 86.5810259,23.1259067 C86.3697825,22.9841954 86.1840499,22.8027497 85.9898462,22.6356182 C85.843451,22.5096033 85.6900452,22.3889192 85.5606896,22.2462701 C85.1313382,21.7728132 84.73889,21.2722086 84.4108517,20.716568 C84.058325,20.1194161 83.8168483,19.4780874 83.6042904,18.8237278 C83.5242039,18.5773742 83.4946035,18.3141397 83.4429489,18.0584572 C83.384089,17.766989 83.3747902,17.4685612 83.3342844,17.17655 C83.2843825,16.8167682 83.3106236,16.4610833 83.3003024,16.1040162 C83.2964563,15.9697089 83.3302923,15.8344143 83.3449951,15.6993666 C83.3597466,15.5642201 83.3370595,15.4310974 83.3842837,15.2915086 C83.4229882,15.1771918 83.4258606,15.0391825 83.4352567,14.9140067 C83.4558991,14.6406041 83.5452844,14.3855633 83.6074549,14.1251916 C83.7174826,13.6648644 83.8882689,13.2233925 84.0829108,12.790756 C84.2463944,12.427371 84.4389428,12.0827425 84.6598745,11.7542053 C84.7886945,11.5625915 84.9367937,11.3844529 85.070677,11.1961462 C85.2941889,10.8819232 85.5809425,10.6282151 85.8517761,10.3607357 C86.2216346,9.9955737 86.645728,9.70252601 87.0920704,9.43825495 C87.3572079,9.2812422 87.6326665,9.15019258 87.9116305,9.02476994 C88.246582,8.87412458 88.5973561,8.76918616 88.9517329,8.67604468 C89.2176493,8.60615155 89.4889698,8.56824341 89.7580994,8.51799538 C89.9349226,8.48497383 90.1146183,8.51996976 90.2789295,8.47218971 C90.4953335,8.40915756 90.7095467,8.45032343 90.9232243,8.42860522 C91.0775065,8.41285952 91.2220517,8.46192292 91.3713194,8.47835965 C91.5205383,8.49484575 91.6698059,8.49316752 91.8208262,8.51572484 C92.0385934,8.54810471 92.2565553,8.58946802 92.4698435,8.63502689 C92.7646787,8.69815776 93.051627,8.80556415 93.3360436,8.91025577 C93.5413962,8.98582525 93.7447526,9.0741295 93.9357432,9.1810423 C94.3780447,9.42853111 94.8044263,9.69926828 95.1894745,10.0377268 C95.3720425,10.198244 95.5457499,10.3661652 95.7192139,10.5354192 C96.1285071,10.9350835 96.473293,11.3905735 96.7767454,11.8732112 C97.1134982,12.4088611 97.4058019,12.9710171 97.6145137,13.5748326 C97.7072095,13.8428056 97.826536,14.1014497 97.9361742,14.3632528 C97.9499033,14.3961262 97.9783839,14.4226323 98,14.4521 L98,14.5014595 Z" id="Fill-3"></path>
            <path d="M63.9488011,16.9424083 C63.9488011,17.0636659 63.9500311,17.1848716 63.9484424,17.3060772 C63.9469049,17.4251528 63.967046,17.5383058 63.9936958,17.655563 C64.0344904,17.8353713 64.0072256,18.0328954 64.0581678,18.2082358 C64.1713269,18.5977252 64.2774136,18.9915785 64.4624246,19.3563904 C64.633137,19.692888 64.8080007,20.032243 65.0527175,20.314554 C65.2974856,20.5970208 65.5579361,20.8692529 65.8584638,21.1007541 C66.218031,21.3778179 66.6073742,21.5890575 67.0244435,21.7573843 C67.4019993,21.9096576 67.7976462,21.9990163 68.1965219,22.0308633 C68.5119632,22.0561123 68.8335544,22.065204 69.1559144,21.9978733 C69.3973001,21.9474272 69.6392494,21.9043065 69.8766376,21.8337547 C70.5125939,21.6449067 71.0443598,21.2805624 71.5217498,20.8286779 C71.8041351,20.5612773 72.0318884,20.2489897 72.2312493,19.9112452 C72.4229228,19.5866447 72.5787216,19.2477573 72.7118681,18.8964012 C72.8906267,18.4247746 72.9313189,17.9230155 73.0165982,17.431491 C73.0544204,17.2132897 73.0282319,16.2450473 72.9615049,16.0207675 C72.8857068,15.7658876 72.8995441,15.4883562 72.7645527,15.2504649 C72.6979795,14.7748379 72.4575163,14.3658663 72.2322743,13.9634926 C71.9536815,13.4657858 71.5581371,13.0572298 71.1114455,12.6962625 C70.3819074,12.1068072 69.537929,11.8694353 68.6306573,11.8090143 C68.3384833,11.789584 68.052408,11.8629412 67.7641802,11.9062178 C67.4519164,11.9530791 67.154925,12.046594 66.8704897,12.174034 C66.5764707,12.305734 66.2806068,12.4417462 66.0250762,12.645141 C65.8075729,12.8182994 65.5940671,12.9973283 65.3875824,13.1837866 C65.3013294,13.2617156 65.2421361,13.3696214 65.1630067,13.456746 C64.9530883,13.6878836 64.7732535,13.9431791 64.6291396,14.2181128 C64.4172737,14.6225126 64.2310327,15.0394849 64.1281235,15.490798 C64.0547853,15.8123852 63.9422412,16.3918656 63.9483911,16.6566685 C63.9505948,16.7518978 63.9487499,16.847179 63.9488011,16.9424083 L63.9488011,16.9424083 Z M72.7630152,23.5042417 C72.7128418,23.4997219 72.688037,23.4974879 72.6645647,23.4953578 C72.4839611,23.6969343 72.3004875,23.8884839 72.0913892,24.0609149 C71.8962819,24.2217085 71.6978947,24.3719037 71.4859264,24.5073444 C71.1987748,24.6909452 70.8946597,24.8356855 70.5806021,24.9667621 C70.2304649,25.112957 69.8620827,25.1918212 69.5037455,25.3065847 C69.3951476,25.341393 69.2762485,25.3308986 69.1604244,25.3565112 C68.9416399,25.4049831 68.7116829,25.4074249 68.4858771,25.4159971 C68.2555614,25.4247251 68.0194545,25.449039 67.7954425,25.4100225 C67.501731,25.358953 67.2030996,25.3573944 66.9111819,25.286427 C66.6322815,25.2187327 66.3557387,25.1453235 66.0787346,25.0706155 C65.5003828,24.9148094 64.9649782,24.6573838 64.4474085,24.3692022 C64.0563228,24.1514165 63.6941931,23.8791324 63.3433895,23.5921977 C62.9506638,23.2709222 62.5981691,22.907617 62.2656617,22.5307521 C61.6878224,21.8757845 61.2379021,21.126159 60.8995523,20.3173594 C60.6857902,19.8064046 60.5145653,19.2770067 60.4082736,18.7281784 C60.3684526,18.5225496 60.351899,18.3096994 60.2991119,18.1123311 C60.2321287,17.8618152 60.319458,17.5999736 60.2079901,17.3614588 C60.2365362,17.0556652 60.1465931,16.7435854 60.2557548,16.4413765 C60.2668247,16.4108283 60.2583172,16.3726951 60.2581122,16.3380426 C60.255806,15.9650742 60.3431866,15.6058732 60.4028924,15.2407497 C60.4963204,14.6688025 60.6708765,14.1222081 60.8933511,13.5988886 C61.161284,12.9685985 61.4853865,12.3621547 61.9084007,11.8150928 C62.1623425,11.4865959 62.4108005,11.1555533 62.7029233,10.86041 C63.1257325,10.433203 63.5933339,10.0612217 64.0918387,9.73184159 C64.6246296,9.37981012 65.1919115,9.09791478 65.7978868,8.89000009 C66.1641677,8.76432652 66.5304486,8.65543367 66.9099006,8.57968663 C67.1977184,8.52222695 67.4832299,8.47905426 67.7767364,8.47796325 C67.8998379,8.47749568 68.0223757,8.44284323 68.145836,8.43011482 C68.3228009,8.41187942 68.4947946,8.45224667 68.6688895,8.4778074 C68.8417031,8.50321226 69.0164643,8.49708185 69.1925067,8.5222789 C69.6353545,8.58545338 70.0654924,8.6887873 70.4801017,8.84906137 C70.7554145,8.95546049 71.02304,9.08222507 71.2850279,9.22686138 C71.5863756,9.39316196 71.8550772,9.60097275 72.1306464,9.79969181 C72.2885976,9.91357212 72.4122629,10.0760282 72.5528918,10.2150536 C72.6053202,10.2669024 72.662156,10.3143352 72.7421054,10.3865495 C72.7811063,10.1199802 72.758044,9.88936217 72.7622977,9.66035468 C72.7666027,9.4286976 72.7632202,9.19683272 72.7632202,8.94875859 L72.9294227,8.94875859 C73.9714296,8.94875859 75.0134877,8.94829102 76.0554947,8.94953788 C76.1367765,8.94964179 76.2302558,8.9189897 76.299699,9.04294883 L76.299699,9.24603192 C76.299699,14.2592593 76.3016977,19.2725907 76.295394,24.2858181 C76.2949328,24.6435124 76.2572643,25.0024017 76.2396345,25.3607194 C76.2252333,25.6526936 76.1946886,25.9507981 76.1372378,26.2373173 C76.078762,26.5291875 76.0282811,26.8242269 75.9555579,27.1150061 C75.8748911,27.4374246 75.7929429,27.7574532 75.6867025,28.0722865 C75.5100451,28.5958138 75.2762445,29.0919621 74.9972929,29.5658746 C74.6411081,30.1710716 74.1921104,30.7025996 73.6719782,31.165602 C73.2669525,31.5261537 72.8233872,31.8339735 72.3339023,32.0777875 C71.9266217,32.2807147 71.5190849,32.4782389 71.0826945,32.6016785 C70.7357859,32.6998171 70.3901074,32.8026835 70.0294127,32.8538569 C69.7238113,32.8971854 69.4154424,32.9168755 69.1129673,32.9623341 C68.6626883,33.0299765 68.2160992,32.9803097 67.7685365,32.9996361 C67.6635773,33.004208 67.5573368,32.9644122 67.4508402,32.9524111 C67.3439335,32.9404101 67.2402043,32.9462288 67.1305302,32.908615 C67.0095299,32.8671048 66.8702334,32.8955749 66.737087,32.8526619 C66.5580721,32.7949425 66.3625549,32.7906824 66.1824638,32.7353008 C65.6408067,32.5687924 65.1004309,32.3914779 64.6022848,32.1149337 C64.1515958,31.8647295 63.7181266,31.5868345 63.3173548,31.2540775 C62.933854,30.9357633 62.5949404,30.5733932 62.2555142,30.2128415 C61.9342305,29.8715123 61.67255,29.4762042 61.4341881,29.0711291 C61.2366721,28.7356705 61.0338775,28.3991209 60.9193346,28.0173206 C60.9342995,27.9944094 60.9432169,27.9626144 60.9620255,27.9546656 C61.9753327,27.5235621 62.9892548,27.0939653 64.0043044,26.66707 C64.0399741,26.6521076 64.087175,26.6651477 64.1293535,26.6651477 C64.2979134,27.0293881 64.4760058,27.3794973 64.7163151,27.6926162 C64.8237856,27.8326807 64.9223898,27.9819408 65.0441589,28.1080819 C65.2689909,28.3409859 65.4838804,28.5848518 65.7481746,28.7771807 C66.0451148,28.9932 66.3587112,29.1730083 66.6958823,29.3181641 C66.9394204,29.4230566 67.1944897,29.4792694 67.4447927,29.5560036 C67.4604239,29.5608352 67.4751325,29.5700308 67.4909686,29.5726284 C67.7288693,29.6123722 68.6232773,29.6607922 68.833042,29.6227108 C69.2766585,29.5422881 69.7327287,29.5132465 70.1501055,29.3150989 C70.3514139,29.2195579 70.5634335,29.1435511 70.7546458,29.0308138 C71.052201,28.8554215 71.3249514,28.6415322 71.5568558,28.380418 C71.8752183,28.0219963 72.1381288,27.6326108 72.3109937,27.17444 C72.4137492,26.9021559 72.5090222,26.6295601 72.5845128,26.3494312 C72.6190551,26.2212119 72.6377099,26.0883169 72.6601573,25.9569805 C72.6799396,25.8414377 72.6990557,25.7254793 72.7107919,25.6088974 C72.722528,25.4919 72.6872683,25.3691877 72.7606577,25.2598792 C72.7727014,25.2420075 72.7630152,25.2090175 72.7630152,25.1830412 L72.7630152,23.5042417 Z" id="Fill-5"></path>
            <path d="M38.4446587,16.5064126 C38.4852409,16.1311485 38.3892701,15.7680295 38.3429325,15.4008621 C38.3283229,15.2850886 38.2754922,15.1746965 38.2500607,15.0596141 C38.1689946,14.6921012 38.0100106,14.3559383 37.840549,14.0244164 C37.6346372,13.6214061 37.3611375,13.2659395 37.053352,12.937281 C36.9771066,12.8558692 36.880693,12.7933663 36.7936257,12.7220755 C36.6753223,12.6251121 36.565037,12.5155593 36.4373383,12.4332095 C36.0242849,12.1668564 35.5957364,11.9371361 35.111701,11.8146483 C34.7392299,11.7204002 34.3619873,11.6831256 33.9837608,11.6388404 C33.8275807,11.6205734 33.6820257,11.6854954 33.5310106,11.6863347 C33.2004007,11.6882601 32.888975,11.7815701 32.5780413,11.8738927 C32.2663697,11.9664621 31.9785064,12.1132896 31.697333,12.2789765 C31.3766595,12.4679663 31.0928298,12.7031173 30.8236589,12.9537213 C30.6544925,13.1111634 30.5172507,13.3056826 30.3784349,13.4930925 C30.1120186,13.8530025 29.917765,14.2537417 29.7521403,14.6684527 C29.7084099,14.7780056 29.691931,14.9005428 29.6369359,15.0029863 C29.5734309,15.1212777 29.6309347,15.2630694 29.5460317,15.3712892 C29.5265522,15.6673139 29.4313193,15.9546495 29.4439121,16.2541301 C29.4569476,16.5620037 29.4136598,16.8710621 29.4885279,17.1782446 C29.5280772,17.3405743 29.5016126,17.5205293 29.5494259,17.6789588 C29.6928656,18.1540498 29.8256802,18.6350159 30.0854065,19.0659204 C30.2674117,19.3678695 30.4632395,19.6611295 30.6949271,19.9258534 C30.9351248,20.2002539 31.2211681,20.4253827 31.5252151,20.6263695 C31.8844048,20.8638903 32.2689768,21.0446846 32.6817351,21.1699866 C33.0646838,21.2862044 33.4514694,21.370529 33.852963,21.3637159 C34.0699427,21.3600131 34.2855943,21.3547305 34.5038037,21.3282679 C34.7109453,21.3031384 34.9171523,21.2634447 35.1098318,21.2074093 C35.8298837,20.9980296 36.4719192,20.632837 37.0115892,20.1064996 C37.2010222,19.9217557 37.3677783,19.7099074 37.5238108,19.4949982 C37.7816187,19.1399759 37.98817,18.7517768 38.1307243,18.3371645 C38.2278265,18.0546672 38.3232071,17.771627 38.3572962,17.4653332 C38.3891225,17.1790345 38.4531686,16.896241 38.444757,16.6051534 C38.4438224,16.5722727 38.4446587,16.5393427 38.4446587,16.5064126 M25.9009106,16.5052771 C25.9009598,16.307845 25.8982543,16.110413 25.9019436,15.9130302 C25.9043048,15.785161 25.8951061,15.659859 25.9432637,15.5306074 C25.9865022,15.4145871 25.9654979,15.2795097 25.987486,15.1509987 C26.0290029,14.9080965 26.0810465,14.6693414 26.1336805,14.4289077 C26.2015635,14.1184669 26.309586,13.8219485 26.4161328,13.5266644 C26.5940552,13.0336519 26.8181184,12.5593014 27.1158198,12.1247435 C27.3052036,11.8483682 27.4984242,11.5746589 27.6926287,11.3016902 C27.7255372,11.2554301 27.7717271,11.2185999 27.8122602,11.1778693 C28.0381434,10.9509137 28.2603865,10.7201567 28.4909428,10.4981381 C28.8446723,10.1574826 29.242329,9.87256626 29.6641383,9.62517137 C29.9580521,9.45277006 30.2640668,9.29987005 30.571016,9.15136399 C30.9116609,8.98656572 31.2690797,8.86501588 31.6369761,8.77397693 C31.8655156,8.7173985 32.0910053,8.64862558 32.3185609,8.58775192 C32.4256489,8.55911711 32.536672,8.56528841 32.6475968,8.53843093 C32.848196,8.4899986 33.0622243,8.4998233 33.269907,8.47824846 C33.5594428,8.44803379 33.8486343,8.41105539 34.1403836,8.43134661 C34.2834791,8.44136879 34.4257874,8.46249931 34.568391,8.47918649 C34.7109945,8.49587368 34.851778,8.46827564 34.9994481,8.51818908 C35.1211456,8.55931459 35.2655692,8.55042793 35.4004498,8.57254585 C35.6347938,8.61100536 35.8631857,8.66965736 36.0932009,8.72480405 C36.4609497,8.81302889 36.8210249,8.93038225 37.1667855,9.07829585 C37.5015275,9.22146991 37.8231356,9.39964755 38.138398,9.58335467 C38.4126848,9.74321591 38.6734933,9.92741674 38.9336131,10.1102846 C39.0778891,10.2116913 39.2151801,10.3254406 39.3438626,10.4461511 C39.5353124,10.6258099 39.7114147,10.8219584 39.9031597,11.0012715 C40.1294856,11.2128729 40.3104577,11.4629832 40.4941354,11.707712 C40.756518,12.0573036 40.9814666,12.4352337 41.1741953,12.8280737 C41.4353482,13.3602862 41.6407189,13.9188625 41.7791904,14.4933854 C41.8585348,14.8227351 41.9146613,15.1632425 41.9515542,15.5063172 C41.98402,15.808217 41.9749197,16.1065621 41.9852498,16.4061414 C41.9954322,16.7018699 42.0156496,17.0018936 41.9787074,17.2932775 C41.9429459,17.575281 41.8979857,17.85921 41.8525827,18.140621 C41.7723529,18.6380275 41.6076136,19.1067003 41.4366271,19.5711767 C41.3145361,19.9027974 41.1720309,20.2320978 40.9782692,20.5373547 C40.7990187,20.8198519 40.6329021,21.1104953 40.4288103,21.376404 C40.3115891,21.5290572 40.1994838,21.6868943 40.0702601,21.8287847 C39.8989785,22.0167377 39.7073319,22.1859793 39.5350665,22.3731423 C39.3085438,22.6192042 39.0423243,22.8185124 38.7806796,23.0205853 C38.4154886,23.3026381 38.0142902,23.5324078 37.6001054,23.7345301 C37.1323521,23.9627693 36.6495465,24.1524996 36.1433753,24.2822449 C35.9293962,24.337046 35.7157123,24.3882924 35.4984866,24.42769 C35.2312834,24.4762211 34.9591118,24.4928589 34.6932367,24.5351693 C34.2615401,24.6038928 33.8324997,24.5494373 33.4034102,24.5744681 C33.2081728,24.4907853 32.9931115,24.5550655 32.7908398,24.484614 C32.6764717,24.4447721 32.5408532,24.4548931 32.4137939,24.4322321 C31.9000966,24.3406007 31.3997791,24.2080412 30.9183508,24.0060177 C30.6636419,23.8991803 30.3991933,23.8092275 30.1591432,23.6755325 C29.7634541,23.4551432 29.3796691,23.2150551 29.0133468,22.9433206 C28.5448064,22.5957039 28.1470513,22.1762533 27.752346,21.7556672 C27.4916851,21.4779095 27.2686058,21.1610505 27.0811896,20.8238016 C26.9615581,20.608448 26.8227915,20.4026724 26.7170809,20.1808513 C26.4483035,19.6168937 26.2304876,19.0334841 26.09664,18.4205016 C26.0302819,18.1169726 25.9702693,17.8144804 25.9403615,17.5031015 C25.9242269,17.3353904 25.9029274,17.1678274 25.9012058,16.9987339 C25.8994841,16.8342812 25.9008122,16.6697298 25.9009106,16.5052771" id="Fill-7"></path>
            <path d="M46.2869829,16.5418344 C46.3048432,16.7360484 46.2908592,16.9769153 46.3253039,17.2214353 C46.3687278,17.5301339 46.4355563,17.8299956 46.5220115,18.1259572 C46.6265232,18.4837277 46.7767649,18.8214547 46.9690075,19.1440257 C47.1636053,19.4705461 47.3919608,19.7674457 47.6483825,20.0431664 C47.7688898,20.1727576 47.90922,20.2847244 48.0465081,20.3973824 C48.4168131,20.7010948 48.8247521,20.9361855 49.2772435,21.0979153 C49.7682521,21.2734189 50.2685343,21.3782766 50.7908474,21.3683043 C50.9752393,21.3647498 51.1567364,21.3546293 51.3414718,21.3262921 C51.6705609,21.2758379 51.9860095,21.1963553 52.2995936,21.0829074 C52.9195981,20.8586283 53.4424509,20.491626 53.9123118,20.038279 C54.1214333,19.8365117 54.2822242,19.5952499 54.4444872,19.3557653 C54.6586625,19.0397109 54.8267644,18.6986269 54.954043,18.3401653 C55.0300961,18.1258091 55.0997214,17.9085402 55.1398088,17.6800648 C55.1893169,17.3975806 55.2603652,17.116775 55.2611993,16.8304895 C55.2622297,16.498193 55.2823961,16.1666864 55.2247429,15.8319709 C55.169494,15.5111277 55.1176798,15.1924568 55.0221473,14.8804999 C54.8957029,14.4674373 54.7117034,14.0831562 54.4808455,13.720597 C54.36024,13.5311223 54.2115194,13.3603582 54.0844862,13.1782887 C53.9070617,12.9239938 53.6696288,12.7413319 53.4394578,12.5603979 C52.9835808,12.2020844 52.464359,11.9463084 51.9008791,11.7973649 C51.5787574,11.7123037 51.2454486,11.6868792 50.9158688,11.6476809 C50.7659706,11.629859 50.6041983,11.6356351 50.4592559,11.6741422 C50.3107806,11.7135873 50.1489102,11.6386959 50.0136828,11.7409866 C49.7167323,11.7837393 49.4348942,11.8686524 49.1517804,11.9755343 C48.6116563,12.1794244 48.1600481,12.5092032 47.7339054,12.8828701 C47.6076082,12.9936027 47.5109962,13.1382512 47.3976035,13.2643866 C47.1666474,13.5213968 46.9820592,13.8103975 46.8275978,14.1178619 C46.6645007,14.4426051 46.5217662,14.7806283 46.4421803,15.1335607 C46.356363,15.5141886 46.2703985,15.8999507 46.2865904,16.2968207 C46.2892891,16.3625296 46.2869829,16.4284359 46.2869829,16.5418344 M58.7989932,16.4442337 C58.7989932,16.6832739 58.8017899,16.864356 58.7980609,17.0452407 C58.7955094,17.1731534 58.8049302,17.2984495 58.756796,17.4276458 C58.7136174,17.5436608 58.739868,17.6778926 58.7127833,17.8077306 C58.6741189,17.9928115 58.6351601,18.1812001 58.6090076,18.3688481 C58.5703923,18.6463461 58.4743691,18.9056272 58.3955192,19.1691046 C58.2471421,19.6645133 58.0149593,20.1274377 57.7641313,20.5766378 C57.554372,20.9522302 57.3099716,21.3067917 57.0373581,21.64363 C56.7479147,22.0013018 56.4249099,22.3259956 56.0860565,22.628375 C55.6834167,22.9876759 55.2413274,23.3021505 54.7552745,23.5497808 C54.5658287,23.6462954 54.3824671,23.753276 54.1869861,23.8405094 C53.8920964,23.9720259 53.5940664,24.0901638 53.2861249,24.1877151 C52.9634145,24.289907 52.6387414,24.3753138 52.3047456,24.4330744 C52.037284,24.4793323 51.7665841,24.4961668 51.5010361,24.5377841 C51.1275418,24.5962359 50.7571877,24.5638011 50.3858523,24.5742177 C50.2604383,24.5777229 50.1342393,24.5435108 50.0081383,24.528651 C49.8820374,24.5137912 49.7580463,24.5317118 49.6274312,24.4891072 C49.504814,24.4490203 49.3612945,24.470841 49.2272938,24.4324326 C49.0163569,24.3719567 48.8011021,24.324514 48.5854547,24.2832917 C48.259555,24.220841 47.9502396,24.0982601 47.6491184,23.9734083 C47.3603129,23.8536907 47.0531566,23.7553988 46.8009056,23.5503238 C46.7102798,23.476716 46.595366,23.4332228 46.4911978,23.3766963 C46.1323253,23.1819393 45.8242857,22.9141175 45.5011827,22.6692024 C45.352413,22.5563964 45.232102,22.4055769 45.0989845,22.2719375 C45.0121858,22.1848029 44.9255344,22.097372 44.8388338,22.010188 C44.4807464,21.6499492 44.1875249,21.2418727 43.9236943,20.8071867 C43.7789481,20.5686896 43.6261549,20.3349317 43.5137436,20.079995 C43.3037879,19.6037905 43.1188562,19.1196378 42.9904492,18.6112454 C42.9187139,18.3271321 42.8653296,18.0396618 42.8113564,17.7540181 C42.7544883,17.4533172 42.7356468,17.1424958 42.7507593,16.8323162 C42.7553224,16.7388624 42.78594,16.6354363 42.7103285,16.5487953 C42.6979146,16.5345279 42.6963936,16.4943423 42.7073845,16.478199 C42.7832904,16.3661334 42.7528691,16.2408373 42.7518387,16.1216134 C42.7490419,15.7901067 42.805174,15.4661041 42.8437894,15.1384975 C42.9198425,14.4939479 43.1306813,13.8912625 43.358399,13.2948467 C43.5194843,12.8730459 43.7507348,12.4827419 43.9875298,12.0952025 C44.372751,11.4647228 44.8696476,10.9352996 45.4044726,10.4421619 C45.7435713,10.1295139 46.1129931,9.84515374 46.5204414,9.62087457 C46.7839286,9.4757818 47.0453059,9.32387623 47.3194896,9.20208519 C47.6991663,9.03354258 48.0850254,8.88178512 48.4881558,8.76848539 C48.7138127,8.70509678 48.9507059,8.68367103 49.1698369,8.58804507 C49.2593833,8.54899492 49.3697339,8.56987762 49.4740002,8.54168845 C49.6490205,8.49449257 49.8377794,8.4908887 50.0212881,8.4850139 C50.3439005,8.47474534 50.6631763,8.40044638 50.9877022,8.43431288 C51.1219973,8.44838279 51.256047,8.46566161 51.3899495,8.48318728 C51.5158542,8.49962685 51.6505418,8.43964464 51.7689883,8.5295439 C51.7847387,8.54154034 51.8168282,8.53280219 51.8413614,8.53206167 C52.1629434,8.52292858 52.4683824,8.62181283 52.7770599,8.6871268 C53.0359348,8.74187599 53.2854871,8.84263623 53.5378852,8.9268088 C54.0488639,9.09712866 54.5271643,9.3345891 54.9956023,9.60255902 C55.3017773,9.77766758 55.5791013,9.98901231 55.857014,10.1985798 C56.1021013,10.3834139 56.3149027,10.6120868 56.5383026,10.8253075 C56.9946702,11.2607833 57.3610008,11.763844 57.6826809,12.3082258 C58.0234969,12.8850917 58.2907131,13.490838 58.4878624,14.1283773 C58.5621982,14.3689479 58.5969372,14.6217619 58.6523333,14.8684541 C58.7032153,15.0946587 58.7159726,15.3283671 58.7601325,15.5525476 C58.8230848,15.8718603 58.7702402,16.1870261 58.7989932,16.4442337" id="Fill-9"></path>
            <path d="M82.6,25.2765957 L79.1289228,25.2765957 C79.1242259,25.2717089 79.1176503,25.2662563 79.1128051,25.2594662 C79.1082566,25.2530876 79.1025709,25.2453716 79.1025709,25.23817 C79.1013843,17.1037448 79.1007416,8.96937111 79.1000494,0.834997379 C79.1,0.793793877 79.1,0.752641815 79.1,0.70212766 L82.6,0.70212766 L82.6,25.2765957 Z" id="Fill-11"></path>
        </g>
    </g>
</svg>