<?xml version="1.0" encoding="UTF-8"?>
<svg width="288px" height="40px" viewBox="0 0 288 40" version="1.1" xmlns="http://www.w3.org/2000/svg" xmlns:xlink="http://www.w3.org/1999/xlink">
    <!-- Generator: Sketch 53.2 (72643) - https://sketchapp.com -->
    <title>wtm-tagline-logo-hdr</title>
    <desc>Created with Sketch.</desc>
    <g id="Page-1" stroke="none" stroke-width="1" fill="none" fill-rule="evenodd">
        <g id="wtm-tagline-logo-hdr">
            <polygon id="Shape" fill="#4285F4" fill-rule="nonzero" points="8.36562292 7.56190476 15.1770819 7.56190476 15.1770819 29.5047619 8.36562292 29.5047619"></polygon>
            <polygon id="Shape" fill="#00BFA5" fill-rule="nonzero" points="28.7232512 7.56190476 35.5730846 7.56190476 35.5730846 29.5047619 28.7232512 29.5047619"></polygon>
            <polygon id="Shape" fill="#1CE9B6" fill-rule="nonzero" points="28.7616256 29.5047619 35.5730846 29.5047619 25.4038641 10.8952381 18.5924051 10.8952381"></polygon>
            <polygon id="Shape" fill="#4FC3F7" fill-rule="nonzero" points="15.1770819 29.5047619 8.36562292 29.5047619 18.5540306 10.8952381 25.3463025 10.8952381"></polygon>
            <polygon id="Shape" points="0 0 287.904064 0 287.904064 37.0857143 0 37.0857143"></polygon>
            <path d="M4.35549634,32.8380952 L4.35549634,4.32380952 L11.8001332,4.32380952 L11.8001332,0 L1.72684877,0 C0.78667555,0 0,0.761904762 0,1.71428571 L0,35.2190476 C0,36.152381 0.767488341,37.1047619 1.72684877,37.1047619 L11.8193205,37.1047619 L11.8193205,32.8571429 L4.35549634,32.8571429 L4.35549634,32.8380952 Z" id="Shape" fill="#4285F4" fill-rule="nonzero"></path>
            <polygon id="Shape" points="0 0 287.904064 0 287.904064 37.0857143 0 37.0857143"></polygon>
            <path d="M39.5832112,32.8380952 L39.5832112,4.32380952 L32.1385743,4.32380952 L32.1385743,0 L42.231046,0 C43.1712192,0 43.9578947,0.761904762 43.9578947,1.71428571 L43.9578947,35.2190476 C43.9578947,36.152381 43.1904064,37.1047619 42.231046,37.1047619 L32.1385743,37.1047619 L32.1385743,32.8571429 L39.5832112,32.8571429 L39.5832112,32.8380952 Z" id="Shape" fill="#00BFA5" fill-rule="nonzero"></path>
            <polygon id="Shape" points="0 0 287.904064 0 287.904064 37.0857143 0 37.0857143"></polygon>
            <polygon id="Shape" fill="#002D63" fill-rule="nonzero" points="64.1812125 14.1904762 64.7184544 16.952381 64.7952032 16.9714286 65.4859427 14.1904762 69.3233844 1.27619048 70.7240506 1.27619048 74.5614923 14.1904762 75.2330446 16.9714286 75.3097935 16.9714286 75.8854097 14.1904762 79.1664224 1.27619048 80.6822119 1.27619048 76.0197202 19.2952381 74.619054 19.2952381 70.5513658 5.46666667 70.0716855 3.58095238 69.9949367 3.58095238 69.5344437 5.46666667 65.4283811 19.2952381 64.0085276 19.2952381 59.346036 1.27619048 60.8810127 1.27619048"></polygon>
            <polygon id="Shape" points="0 0 287.904064 0 287.904064 37.0857143 0 37.0857143"></polygon>
            <path d="M82.2363757,12.4 C82.2363757,10.4380952 82.7736176,8.81904762 83.8672885,7.54285714 C84.9609594,6.28571429 86.4,5.65714286 88.1844104,5.65714286 C89.988008,5.65714286 91.4270486,6.28571429 92.5207195,7.54285714 C93.6143904,8.8 94.1516322,10.4190476 94.1516322,12.4 L94.1516322,12.8 C94.1516322,14.7809524 93.6143904,16.4 92.5207195,17.6571429 C91.4270486,18.9142857 89.988008,19.5428571 88.2035976,19.5428571 C86.4,19.5428571 84.9417722,18.9142857 83.8481013,17.6571429 C82.7544304,16.4 82.2171885,14.7809524 82.2171885,12.8 L82.2363757,12.4 Z M83.732978,12.8 C83.732978,14.3428571 84.1359094,15.6571429 84.9225849,16.7047619 C85.7092605,17.752381 86.8029314,18.2857143 88.2227848,18.2857143 C89.6042638,18.2857143 90.6979347,17.752381 91.4846103,16.7047619 C92.2712858,15.6571429 92.6742172,14.3428571 92.6742172,12.8 L92.6742172,12.4 C92.6742172,10.8761905 92.2712858,9.58095238 91.4846103,8.51428571 C90.6787475,7.44761905 89.5850766,6.91428571 88.2035976,6.91428571 C86.8029314,6.91428571 85.7092605,7.44761905 84.9225849,8.51428571 C84.1359094,9.58095238 83.732978,10.8761905 83.732978,12.4 L83.732978,12.8 Z" id="Shape" fill="#002D63" fill-rule="nonzero"></path>
            <polygon id="Shape" points="0 0 287.904064 0 287.904064 37.0857143 0 37.0857143"></polygon>
            <path d="M98.5263158,5.9047619 L98.6606262,8.11428571 C99.101932,7.33333333 99.6583611,6.72380952 100.387475,6.3047619 C101.097402,5.86666667 101.960826,5.65714286 102.958561,5.65714286 C103.99467,5.65714286 104.858095,5.9047619 105.548834,6.4 C106.239574,6.8952381 106.738441,7.65714286 107.045436,8.66666667 C107.448368,7.73333333 108.023984,6.99047619 108.791472,6.45714286 C109.539773,5.92380952 110.460759,5.65714286 111.535243,5.65714286 C112.974284,5.65714286 114.087142,6.13333333 114.85463,7.08571429 C115.641306,8.03809524 116.02505,9.5047619 116.02505,11.4857143 L116.02505,19.2952381 L114.528448,19.2952381 L114.528448,11.447619 C114.528448,9.79047619 114.24064,8.62857143 113.645836,7.94285714 C113.051033,7.25714286 112.24517,6.91428571 111.189873,6.91428571 C110.038641,6.91428571 109.136842,7.27619048 108.503664,8 C107.870486,8.72380952 107.486742,9.63809524 107.333245,10.7619048 L107.333245,19.2761905 L105.817455,19.2761905 L105.817455,11.4285714 C105.817455,9.80952381 105.529647,8.64761905 104.934843,7.94285714 C104.34004,7.23809524 103.534177,6.8952381 102.478881,6.8952381 C101.423584,6.8952381 100.579347,7.16190476 99.9653564,7.6952381 C99.3513658,8.22857143 98.91006,8.95238095 98.6606262,9.84761905 L98.6606262,19.2761905 L97.1448368,19.2761905 L97.1448368,5.9047619 L98.5263158,5.9047619 L98.5263158,5.9047619 Z" id="Shape" fill="#002D63" fill-rule="nonzero"></path>
            <polygon id="Shape" points="0 0 287.904064 0 287.904064 37.0857143 0 37.0857143"></polygon>
            <path d="M124.947102,19.5428571 C123.258628,19.5428571 121.857961,18.9333333 120.745103,17.6952381 C119.632245,16.4571429 119.075816,14.8952381 119.075816,12.9904762 L119.075816,12.3047619 C119.075816,10.4 119.632245,8.8 120.745103,7.54285714 C121.857961,6.28571429 123.201066,5.65714286 124.774417,5.65714286 C126.424517,5.65714286 127.729247,6.17142857 128.66942,7.21904762 C129.609594,8.26666667 130.089274,9.63809524 130.089274,11.3714286 L130.089274,12.6285714 L120.572418,12.6285714 L120.572418,12.9904762 C120.572418,14.4952381 120.97535,15.752381 121.781213,16.7619048 C122.587075,17.7714286 123.642372,18.2857143 124.966289,18.2857143 C125.887275,18.2857143 126.693138,18.152381 127.345503,17.9047619 C127.997868,17.6571429 128.554297,17.2761905 129.033977,16.8 L129.667155,17.8095238 C129.168288,18.3428571 128.515923,18.7619048 127.748434,19.0666667 C126.942572,19.3904762 126.021586,19.5428571 124.947102,19.5428571 M124.75523,6.91428571 C123.642372,6.91428571 122.721386,7.33333333 121.973085,8.17142857 C121.224783,9.00952381 120.783478,10.0571429 120.668354,11.3142857 L120.687542,11.3714286 L128.592672,11.3714286 L128.592672,11.0095238 C128.592672,9.84761905 128.247302,8.87619048 127.556562,8.0952381 C126.865823,7.31428571 125.944837,6.91428571 124.75523,6.91428571" id="Shape" fill="#002D63" fill-rule="nonzero"></path>
            <polygon id="Shape" points="0 0 287.904064 0 287.904064 37.0857143 0 37.0857143"></polygon>
            <polygon id="Shape" points="0 0 287.904064 0 287.904064 37.0857143 0 37.0857143"></polygon>
            <path d="M134.348834,5.9047619 L134.483145,8.24761905 C134.905263,7.42857143 135.500067,6.78095238 136.229181,6.34285714 C136.958294,5.88571429 137.840906,5.67619048 138.838641,5.67619048 C140.296869,5.67619048 141.409727,6.11428571 142.177215,7.00952381 C142.944704,7.9047619 143.328448,9.27619048 143.328448,11.1619048 L143.328448,19.3142857 L141.831845,19.3142857 L141.831845,11.1619048 C141.831845,9.61904762 141.544037,8.53333333 140.968421,7.9047619 C140.392805,7.27619048 139.567755,6.95238095 138.512458,6.95238095 C137.457162,6.95238095 136.612925,7.21904762 135.96056,7.77142857 C135.308195,8.32380952 134.828514,9.04761905 134.540706,9.96190476 L134.540706,19.3142857 L133.044104,19.3142857 L133.044104,5.9047619 L134.348834,5.9047619 Z" id="Shape" fill="#002D63" fill-rule="nonzero"></path>
            <polygon id="Shape" points="0 0 287.904064 0 287.904064 37.0857143 0 37.0857143"></polygon>
            <polygon id="Shape" fill="#002D63" fill-rule="nonzero" points="166.007728 2.53333333 159.771885 2.53333333 159.771885 19.2952381 158.275283 19.2952381 158.275283 2.53333333 152.03944 2.53333333 152.03944 1.27619048 166.007728 1.27619048"></polygon>
            <path d="M172.377881,19.5428571 C170.689407,19.5428571 169.288741,18.9333333 168.175883,17.6952381 C167.063025,16.4571429 166.506596,14.8952381 166.506596,12.9904762 L166.506596,12.3047619 C166.506596,10.4 167.063025,8.8 168.175883,7.54285714 C169.288741,6.28571429 170.631845,5.65714286 172.205197,5.65714286 C173.855296,5.65714286 175.160027,6.17142857 176.1002,7.21904762 C177.040373,8.26666667 177.520053,9.63809524 177.520053,11.3714286 L177.520053,12.6285714 L168.003198,12.6285714 L168.003198,12.9904762 C168.003198,14.4952381 168.406129,15.752381 169.211992,16.7619048 C170.017855,17.7714286 171.073151,18.2857143 172.397069,18.2857143 C173.318055,18.2857143 174.123917,18.152381 174.776282,17.9047619 C175.428648,17.6571429 175.985077,17.2761905 176.464757,16.8 L177.097935,17.8095238 C176.599067,18.3428571 175.946702,18.7619048 175.179214,19.0666667 C174.373351,19.3904762 173.452365,19.5428571 172.377881,19.5428571 M172.186009,6.91428571 C171.073151,6.91428571 170.152165,7.33333333 169.403864,8.17142857 C168.655563,9.00952381 168.214257,10.0571429 168.099134,11.3142857 L168.118321,11.3714286 L176.023451,11.3714286 L176.023451,11.0095238 C176.023451,9.84761905 175.678081,8.87619048 174.987342,8.0952381 C174.315789,7.31428571 173.375616,6.91428571 172.186009,6.91428571" id="Shape" fill="#002D63" fill-rule="nonzero"></path>
            <polygon id="Shape" points="0 0 287.904064 0 287.904064 37.0857143 0 37.0857143"></polygon>
            <path d="M185.463558,18.2857143 C186.461292,18.2857143 187.324717,18 188.073018,17.447619 C188.821319,16.8952381 189.205063,16.1142857 189.205063,15.1238095 L190.528981,15.1238095 L190.548168,15.2 C190.586542,16.4380952 190.087675,17.4666667 189.051566,18.3047619 C188.015456,19.1428571 186.806662,19.5619048 185.44437,19.5619048 C183.602398,19.5619048 182.182545,18.9333333 181.18481,17.6952381 C180.187075,16.4380952 179.688208,14.8380952 179.688208,12.8761905 L179.688208,12.3619048 C179.688208,10.4190476 180.187075,8.81904762 181.203997,7.56190476 C182.201732,6.3047619 183.621586,5.67619048 185.44437,5.67619048 C186.921785,5.67619048 188.149767,6.11428571 189.147502,6.97142857 C190.126049,7.82857143 190.60573,8.97142857 190.567355,10.3809524 L190.548168,10.4571429 L189.22425,10.4571429 C189.22425,9.39047619 188.859694,8.53333333 188.13058,7.88571429 C187.401466,7.23809524 186.518854,6.93333333 185.463558,6.93333333 C184.024517,6.93333333 182.950033,7.44761905 182.259294,8.47619048 C181.568554,9.5047619 181.223185,10.8 181.223185,12.3428571 L181.223185,12.8571429 C181.223185,14.4380952 181.568554,15.7333333 182.259294,16.7619048 C182.930846,17.7714286 184.00533,18.2857143 185.463558,18.2857143" id="Shape" fill="#002D63" fill-rule="nonzero"></path>
            <polygon id="Shape" points="0 0 287.904064 0 287.904064 37.0857143 0 37.0857143"></polygon>
            <path d="M195.191472,8.19047619 C195.632778,7.39047619 196.246769,6.76190476 196.99507,6.32380952 C197.743371,5.88571429 198.606795,5.65714286 199.60453,5.65714286 C201.024384,5.65714286 202.118055,6.0952381 202.866356,6.97142857 C203.633844,7.84761905 203.998401,9.2 203.998401,11.047619 L203.998401,19.2952381 L202.501799,19.2952381 L202.501799,11.0095238 C202.501799,9.56190476 202.213991,8.51428571 201.638374,7.88571429 C201.062758,7.25714286 200.256895,6.93333333 199.259161,6.93333333 C198.242239,6.93333333 197.378814,7.2 196.707262,7.73333333 C196.016522,8.26666667 195.517655,8.97142857 195.191472,9.86666667 L195.191472,19.3142857 L193.69487,19.3142857 L193.69487,0 L195.191472,0 L195.191472,8.19047619 Z" id="Shape" fill="#002D63" fill-rule="nonzero"></path>
            <polygon id="Shape" points="0 0 287.904064 0 287.904064 37.0857143 0 37.0857143"></polygon>
            <path d="M209.15976,5.9047619 L209.294071,8.11428571 C209.735376,7.33333333 210.291805,6.72380952 211.020919,6.3047619 C211.730846,5.86666667 212.59427,5.65714286 213.592005,5.65714286 C214.628115,5.65714286 215.491539,5.9047619 216.182278,6.4 C216.873018,6.8952381 217.371885,7.65714286 217.678881,8.66666667 C218.081812,7.73333333 218.657428,6.99047619 219.424917,6.45714286 C220.173218,5.92380952 221.094204,5.65714286 222.168688,5.65714286 C223.607728,5.65714286 224.720586,6.13333333 225.488075,7.08571429 C226.27475,8.03809524 226.658494,9.5047619 226.658494,11.4857143 L226.658494,19.2952381 L225.161892,19.2952381 L225.161892,11.447619 C225.161892,9.79047619 224.874084,8.62857143 224.27928,7.94285714 C223.684477,7.25714286 222.878614,6.91428571 221.823318,6.91428571 C220.672085,6.91428571 219.770286,7.27619048 219.137109,8 C218.503931,8.72380952 218.120187,9.63809524 217.966689,10.7619048 L217.966689,19.2761905 L216.450899,19.2761905 L216.450899,11.4285714 C216.450899,9.80952381 216.163091,8.64761905 215.568288,7.94285714 C214.973484,7.23809524 214.167622,6.8952381 213.112325,6.8952381 C212.057029,6.8952381 211.212791,7.16190476 210.598801,7.6952381 C209.98481,8.22857143 209.543504,8.95238095 209.294071,9.84761905 L209.294071,19.2761905 L207.778281,19.2761905 L207.778281,5.9047619 L209.15976,5.9047619 L209.15976,5.9047619 Z" id="Shape" fill="#002D63" fill-rule="nonzero"></path>
            <polygon id="Shape" points="0 0 287.904064 0 287.904064 37.0857143 0 37.0857143"></polygon>
            <path d="M239.053431,19.2952381 C238.957495,18.8380952 238.880746,18.4571429 238.842372,18.1142857 C238.803997,17.7904762 238.78481,17.447619 238.78481,17.1047619 C238.285943,17.8095238 237.61439,18.3809524 236.78934,18.8571429 C235.96429,19.3142857 235.024117,19.5428571 233.988008,19.5428571 C232.683278,19.5428571 231.647169,19.2 230.937242,18.4952381 C230.208128,17.8095238 229.843571,16.8761905 229.843571,15.7142857 C229.843571,14.4761905 230.380813,13.4857143 231.455296,12.7428571 C232.52978,12 233.988008,11.6380952 235.810793,11.6380952 L238.78481,11.6380952 L238.78481,9.98095238 C238.78481,9.02857143 238.477815,8.26666667 237.863824,7.73333333 C237.249833,7.18095238 236.386409,6.91428571 235.273551,6.91428571 C234.237442,6.91428571 233.374017,7.18095238 232.683278,7.6952381 C231.992538,8.20952381 231.647169,8.85714286 231.647169,9.6 L230.284877,9.58095238 L230.26569,9.5047619 C230.208128,8.51428571 230.668621,7.61904762 231.647169,6.81904762 C232.606529,6.03809524 233.853698,5.63809524 235.3503,5.63809524 C236.827715,5.63809524 238.036509,6.01904762 238.938308,6.76190476 C239.840107,7.5047619 240.3006,8.59047619 240.3006,10 L240.3006,16.5714286 C240.3006,17.047619 240.319787,17.5047619 240.377348,17.9428571 C240.43491,18.3809524 240.511659,18.8380952 240.645969,19.2761905 L239.053431,19.2952381 L239.053431,19.2952381 Z M234.141506,18.247619 C235.215989,18.247619 236.156163,18 236.981213,17.5047619 C237.806262,17.0095238 238.401066,16.3619048 238.765623,15.6 L238.765623,12.8 L235.753231,12.8 C234.390939,12.8 233.316456,13.0857143 232.510593,13.6571429 C231.70473,14.2285714 231.301799,14.9333333 231.301799,15.7904762 C231.301799,16.5142857 231.551233,17.1047619 232.0501,17.5619048 C232.568155,18 233.258894,18.247619 234.141506,18.247619 L234.141506,18.247619 Z" id="Shape" fill="#002D63" fill-rule="nonzero"></path>
            <polygon id="Shape" points="0 0 287.904064 0 287.904064 37.0857143 0 37.0857143"></polygon>
            <polygon id="Shape" fill="#002D63" fill-rule="nonzero" points="247.457428 12.7619048 245.73058 12.7619048 245.73058 19.2952381 244.233977 19.2952381 244.233977 0 245.73058 0 245.73058 11.5047619 247.303931 11.5047619 252.311792 5.9047619 254.057828 5.9047619 254.077015 5.96190476 248.68541 12 254.652632 19.2190476 254.614257 19.2952381 252.906596 19.2952381"></polygon>
            <polygon id="Shape" points="0 0 287.904064 0 287.904064 37.0857143 0 37.0857143"></polygon>
            <path d="M261.579214,19.5428571 C259.89074,19.5428571 258.490073,18.9333333 257.377215,17.6952381 C256.264357,16.4571429 255.707928,14.8952381 255.707928,12.9904762 L255.707928,12.3047619 C255.707928,10.4 256.264357,8.8 257.377215,7.54285714 C258.490073,6.28571429 259.833178,5.65714286 261.406529,5.65714286 C263.056629,5.65714286 264.361359,6.17142857 265.301532,7.21904762 C266.241706,8.26666667 266.721386,9.63809524 266.721386,11.3714286 L266.721386,12.6285714 L257.20453,12.6285714 L257.20453,12.9904762 C257.20453,14.4952381 257.607462,15.752381 258.413324,16.7619048 C259.219187,17.7714286 260.274484,18.2857143 261.598401,18.2857143 C262.519387,18.2857143 263.32525,18.152381 263.977615,17.9047619 C264.62998,17.6571429 265.186409,17.2761905 265.666089,16.8 L266.299267,17.8095238 C265.8004,18.3428571 265.148035,18.7619048 264.380546,19.0666667 C263.574684,19.3904762 262.653698,19.5428571 261.579214,19.5428571 M261.387342,6.91428571 C260.274484,6.91428571 259.353498,7.33333333 258.605197,8.17142857 C257.856895,9.00952381 257.41559,10.0571429 257.300466,11.3142857 L257.319654,11.3714286 L265.224783,11.3714286 L265.224783,11.0095238 C265.224783,9.84761905 264.879414,8.87619048 264.188674,8.0952381 C263.497935,7.31428571 262.557761,6.91428571 261.387342,6.91428571" id="Shape" fill="#002D63" fill-rule="nonzero"></path>
            <polygon id="Shape" points="0 0 287.904064 0 287.904064 37.0857143 0 37.0857143"></polygon>
            <path d="M275.873684,7.18095238 L274.760826,7.1047619 C273.820653,7.1047619 273.053165,7.37142857 272.458361,7.88571429 C271.863558,8.41904762 271.422252,9.12380952 271.172818,10.0380952 L271.172818,19.2761905 L269.676216,19.2761905 L269.676216,5.9047619 L270.980946,5.9047619 L271.172818,8.13333333 L271.172818,8.28571429 C271.556562,7.46666667 272.093804,6.81904762 272.746169,6.36190476 C273.398534,5.9047619 274.18521,5.67619048 275.087009,5.67619048 C275.278881,5.67619048 275.470753,5.6952381 275.643438,5.71428571 C275.816123,5.75238095 275.96962,5.77142857 276.084744,5.80952381 L275.873684,7.18095238 L275.873684,7.18095238 Z" id="Shape" fill="#002D63" fill-rule="nonzero"></path>
            <polygon id="Shape" points="0 0 287.904064 0 287.904064 37.0857143 0 37.0857143"></polygon>
            <path d="M286.426649,15.8857143 C286.426649,15.2571429 286.158028,14.7047619 285.639973,14.247619 C285.121919,13.7714286 284.181746,13.3904762 282.838641,13.1047619 C281.226915,12.7619048 280.037308,12.3047619 279.26982,11.7333333 C278.502332,11.1619048 278.118588,10.3619048 278.118588,9.31428571 C278.118588,8.28571429 278.559893,7.42857143 279.423318,6.72380952 C280.286742,6.01904762 281.437975,5.65714286 282.877015,5.65714286 C284.392805,5.65714286 285.601599,6.03809524 286.484211,6.78095238 C287.366822,7.52380952 287.788941,8.45714286 287.750566,9.58095238 L287.731379,9.65714286 L286.3499,9.65714286 C286.3499,8.91428571 286.042905,8.28571429 285.409727,7.73333333 C284.776549,7.18095238 283.932312,6.91428571 282.877015,6.91428571 C281.783344,6.91428571 280.977482,7.14285714 280.421053,7.61904762 C279.883811,8.07619048 279.596003,8.62857143 279.596003,9.25714286 C279.596003,9.86666667 279.826249,10.3809524 280.305929,10.7809524 C280.766422,11.1809524 281.706596,11.5428571 283.107262,11.847619 C284.718987,12.2095238 285.908594,12.6857143 286.714457,13.3142857 C287.52032,13.9238095 287.904064,14.7619048 287.904064,15.8285714 C287.904064,16.952381 287.443571,17.847619 286.541772,18.5333333 C285.639973,19.2190476 284.431179,19.5619048 282.934577,19.5619048 C281.303664,19.5619048 280.018121,19.1809524 279.077948,18.4 C278.137775,17.6190476 277.696469,16.7047619 277.754031,15.6380952 L277.773218,15.5619048 L279.13551,15.5619048 C279.193071,16.5142857 279.596003,17.2190476 280.325117,17.6571429 C281.054231,18.0952381 281.917655,18.3047619 282.91539,18.3047619 C283.989873,18.3047619 284.853298,18.0761905 285.467288,17.6 C286.100466,17.1238095 286.426649,16.552381 286.426649,15.8857143" id="Shape" fill="#002D63" fill-rule="nonzero"></path>
            <path d="M66.522052,34.9904762 L63.1834777,26.7047619 L61.4374417,26.7047619 L61.4374417,36.8380952 L62.7805463,36.8380952 L62.7805463,32.8952381 L62.6462358,28.647619 L66.0039973,36.8380952 L67.0401066,36.8380952 L70.3978681,28.6285714 L70.2635576,32.8952381 L70.2635576,36.8380952 L71.6066622,36.8380952 L71.6066622,26.7047619 L69.8606262,26.7047619 L66.522052,34.9904762 L66.522052,34.9904762 Z M77.0366422,29.1809524 C76.3650899,29.1809524 75.7702865,29.3333333 75.2522318,29.6571429 C74.7341772,29.9809524 74.3312458,30.4380952 74.0242505,31.0285714 C73.7364424,31.6190476 73.5829447,32.2857143 73.5829447,33.0095238 L73.5829447,33.1047619 C73.5829447,34.2666667 73.88994,35.2 74.5423051,35.9238095 C75.175483,36.6285714 76.0197202,36.9904762 77.0366422,36.9904762 C77.7273817,36.9904762 78.3221852,36.8380952 78.859427,36.5142857 C79.3966689,36.1714286 79.7804131,35.7142857 80.0682212,35.1428571 C80.3560293,34.5714286 80.4903398,33.9047619 80.4903398,33.1619048 L80.4903398,33.0857143 C80.4903398,31.9047619 80.1833444,30.9714286 79.5309793,30.2666667 C78.8978015,29.5428571 78.0535643,29.1809524 77.0366422,29.1809524 L77.0366422,29.1809524 Z M78.6099933,35.1809524 C78.2262492,35.6952381 77.6890073,35.9428571 77.0366422,35.9428571 C76.3842771,35.9428571 75.8662225,35.6952381 75.4824783,35.1809524 C75.0987342,34.6666667 74.8876749,34.0190476 74.8876749,33.1619048 C74.8876749,32.2285714 75.079547,31.5047619 75.4824783,30.9904762 C75.8662225,30.4761905 76.4034644,30.2285714 77.0366422,30.2285714 C77.6890073,30.2285714 78.207062,30.4761905 78.6099933,31.0095238 C79.0129247,31.5238095 79.2047968,32.1904762 79.2047968,33.0095238 C79.2047968,33.9428571 78.9937375,34.647619 78.6099933,35.1809524 Z M83.5411059,30.1904762 L83.5219187,29.3333333 L82.255563,29.3333333 L82.255563,36.8571429 L83.5602931,36.8571429 L83.5602931,31.5047619 C83.8672885,30.8 84.4429047,30.4190476 85.2871419,30.4190476 C85.5173884,30.4190476 85.7284477,30.4380952 85.9203198,30.4761905 L85.9203198,29.2761905 C85.7860093,29.2190476 85.5941372,29.1809524 85.3447035,29.1809524 C84.5772152,29.1809524 83.9632245,29.5238095 83.5411059,30.1904762 L83.5411059,30.1904762 Z M90.1223185,29.1809524 C89.5083278,29.1809524 88.9518987,29.352381 88.4338441,29.6761905 C87.9157895,30.0190476 87.5128581,30.4761905 87.22505,31.0666667 C86.9372418,31.6380952 86.8029314,32.3238095 86.8029314,33.0666667 L86.8029314,33.2952381 C86.8029314,34.4190476 87.1291139,35.3142857 87.7622918,35.9809524 C88.4146569,36.647619 89.2397069,36.9904762 90.2758161,36.9904762 C91.5421719,36.9904762 92.5015323,36.5142857 93.1347102,35.5428571 L92.3480346,34.9333333 C92.1177881,35.2380952 91.82998,35.4857143 91.5229847,35.6761905 C91.1968021,35.8666667 90.813058,35.9428571 90.352565,35.9428571 C89.7001999,35.9428571 89.1821452,35.7142857 88.7600266,35.2571429 C88.3379081,34.8 88.1268488,34.1904762 88.1076616,33.447619 L93.2498334,33.447619 L93.2498334,32.9142857 C93.2498334,31.7142857 92.9812125,30.7809524 92.4247835,30.1333333 C91.8683544,29.5047619 91.1008661,29.1809524 90.1223185,29.1809524 L90.1223185,29.1809524 Z M91.9451033,32.4 L88.146036,32.4 C88.2227848,31.7142857 88.4530313,31.1809524 88.7984011,30.8 C89.162958,30.4190476 89.5850766,30.2285714 90.1223185,30.2285714 C90.6595603,30.2285714 91.1008661,30.4190476 91.4078614,30.7619048 C91.7148568,31.1238095 91.9067288,31.6190476 91.9451033,32.2857143 L91.9451033,32.4 L91.9451033,32.4 Z M105.318588,35.0666667 L103.51499,29.3142857 L102.459694,29.3142857 L100.69447,34.952381 L99.1978681,29.3142857 L97.9123251,29.3142857 L100.118854,36.8380952 L101.174151,36.8380952 L102.958561,31.1238095 L104.800533,36.8380952 L105.855829,36.8380952 L108.062358,29.3142857 L106.757628,29.3142857 L105.318588,35.0666667 L105.318588,35.0666667 Z M112.628914,29.1809524 C111.957362,29.1809524 111.362558,29.3333333 110.844504,29.6571429 C110.326449,29.9809524 109.923518,30.4380952 109.616522,31.0285714 C109.328714,31.6190476 109.175217,32.2857143 109.175217,33.0095238 L109.175217,33.1047619 C109.175217,34.2666667 109.482212,35.2 110.134577,35.9238095 C110.767755,36.6285714 111.592805,36.9904762 112.628914,36.9904762 C113.319654,36.9904762 113.914457,36.8380952 114.451699,36.5142857 C114.988941,36.1714286 115.372685,35.7142857 115.660493,35.1428571 C115.948301,34.5714286 116.082612,33.9047619 116.082612,33.1619048 L116.082612,33.0857143 C116.082612,31.9047619 115.756429,30.9714286 115.123251,30.2666667 C114.50926,29.5428571 113.665023,29.1809524 112.628914,29.1809524 L112.628914,29.1809524 Z M114.202265,35.1809524 C113.818521,35.6952381 113.281279,35.9428571 112.628914,35.9428571 C111.976549,35.9428571 111.458494,35.6952381 111.055563,35.1809524 C110.671819,34.6666667 110.479947,34.0190476 110.479947,33.1619048 C110.479947,32.2285714 110.671819,31.5047619 111.07475,30.9904762 C111.458494,30.4761905 111.976549,30.2285714 112.628914,30.2285714 C113.281279,30.2285714 113.799334,30.4761905 114.202265,31.0095238 C114.605197,31.5238095 114.797069,32.1904762 114.797069,33.0095238 C114.797069,33.9428571 114.605197,34.647619 114.202265,35.1809524 L114.202265,35.1809524 Z M125.964024,29.1809524 C125.407595,29.1809524 124.927915,29.2761905 124.524983,29.5047619 C124.122052,29.7333333 123.795869,30.0190476 123.546436,30.3809524 C123.162692,29.5809524 122.452765,29.1809524 121.378281,29.1809524 C120.438108,29.1809524 119.689807,29.5047619 119.133378,30.152381 L119.095003,29.3142857 L117.867022,29.3142857 L117.867022,36.8380952 L119.171752,36.8380952 L119.171752,31.3333333 C119.478748,30.6285714 120.073551,30.247619 120.917788,30.247619 C121.992272,30.247619 122.529514,30.8 122.529514,31.8857143 L122.529514,36.8190476 L123.834244,36.8190476 L123.834244,31.8285714 C123.891805,31.3333333 124.06449,30.952381 124.390673,30.6857143 C124.697668,30.4 125.1006,30.247619 125.599467,30.247619 C126.175083,30.247619 126.597202,30.3809524 126.846636,30.647619 C127.096069,30.9142857 127.23038,31.3142857 127.23038,31.847619 L127.23038,36.8190476 L128.53511,36.8190476 L128.53511,31.8095238 C128.477548,30.0380952 127.614124,29.1809524 125.964024,29.1809524 L125.964024,29.1809524 Z M133.581346,29.1809524 C132.967355,29.1809524 132.410926,29.352381 131.892871,29.6761905 C131.374817,30.0190476 130.971885,30.4761905 130.684077,31.0666667 C130.396269,31.6380952 130.261959,32.3238095 130.261959,33.0666667 L130.261959,33.2952381 C130.261959,34.4190476 130.588141,35.3142857 131.221319,35.9809524 C131.873684,36.647619 132.698734,36.9904762 133.734843,36.9904762 C135.001199,36.9904762 135.96056,36.5142857 136.593738,35.5428571 L135.807062,34.9333333 C135.576815,35.2380952 135.289007,35.4857143 134.962825,35.6761905 C134.636642,35.8666667 134.252898,35.9428571 133.792405,35.9428571 C133.14004,35.9428571 132.621985,35.7142857 132.199867,35.2571429 C131.777748,34.8 131.566689,34.1904762 131.547502,33.447619 L136.689674,33.447619 L136.689674,32.9142857 C136.689674,31.7142857 136.421053,30.7809524 135.864624,30.1333333 C135.308195,29.4857143 134.579081,29.1809524 133.581346,29.1809524 L133.581346,29.1809524 Z M135.404131,32.4 L131.605063,32.4 C131.681812,31.7142857 131.912059,31.1809524 132.257428,30.8 C132.621985,30.4190476 133.044104,30.2285714 133.581346,30.2285714 C134.118588,30.2285714 134.559893,30.4190476 134.866889,30.7619048 C135.193071,31.1238095 135.365756,31.6190476 135.404131,32.2857143 L135.404131,32.4 L135.404131,32.4 Z M141.889407,29.1809524 C140.968421,29.1809524 140.200933,29.5428571 139.625316,30.2666667 L139.586942,29.3142857 L138.358961,29.3142857 L138.358961,36.8380952 L139.663691,36.8380952 L139.663691,31.4666667 C139.836376,31.1047619 140.085809,30.8 140.411992,30.5904762 C140.738175,30.3619048 141.102732,30.247619 141.52485,30.247619 C142.042905,30.247619 142.426649,30.3809524 142.676083,30.6285714 C142.925516,30.8952381 143.04064,31.2952381 143.059827,31.8285714 L143.059827,36.8190476 L144.364557,36.8190476 L144.364557,31.847619 C144.306995,30.0761905 143.501133,29.1809524 141.889407,29.1809524 L141.889407,29.1809524 Z M150.235843,36.8571429 L151.540573,36.8571429 L151.540573,29.3333333 L150.235843,29.3333333 L150.235843,36.8571429 Z M150.888208,26.5714286 C150.638774,26.5714286 150.446902,26.647619 150.331779,26.8 C150.197468,26.9333333 150.12072,27.1238095 150.12072,27.3333333 C150.12072,27.5428571 150.197468,27.7142857 150.331779,27.8666667 C150.446902,28 150.638774,28.0761905 150.888208,28.0761905 C151.137642,28.0761905 151.329514,28 151.463824,27.8666667 C151.578947,27.7333333 151.655696,27.5428571 151.655696,27.3333333 C151.655696,27.1238095 151.578947,26.952381 151.463824,26.8 C151.348701,26.647619 151.156829,26.5714286 150.888208,26.5714286 Z M157.296736,29.1809524 C156.37575,29.1809524 155.608261,29.5428571 155.032645,30.2666667 L154.99427,29.3142857 L153.766289,29.3142857 L153.766289,36.8380952 L155.071019,36.8380952 L155.071019,31.4666667 C155.243704,31.1047619 155.493138,30.8 155.800133,30.5904762 C156.126316,30.3619048 156.490873,30.247619 156.912991,30.247619 C157.431046,30.247619 157.81479,30.3809524 158.064224,30.6285714 C158.29447,30.8952381 158.428781,31.2952381 158.447968,31.8285714 L158.447968,36.8190476 L159.752698,36.8190476 L159.752698,31.847619 C159.714324,30.0761905 158.889274,29.1809524 157.296736,29.1809524 L157.296736,29.1809524 Z M167.465956,35.6761905 C167.350833,35.5238095 167.274084,35.2952381 167.274084,34.9904762 L167.274084,30.3238095 L168.693937,30.3238095 L168.693937,29.3333333 L167.274084,29.3333333 L167.274084,27.5047619 L165.969354,27.5047619 L165.969354,29.3333333 L164.587875,29.3333333 L164.587875,30.3238095 L165.969354,30.3238095 L165.969354,34.9904762 C165.969354,35.6380952 166.122851,36.1333333 166.41066,36.4571429 C166.698468,36.8190476 167.139773,36.9904762 167.71539,36.9904762 C168.041572,36.9904762 168.367755,36.952381 168.713125,36.8571429 L168.713125,35.8095238 C168.463691,35.8666667 168.252632,35.8857143 168.099134,35.8857143 C167.811326,35.9047619 167.600266,35.8095238 167.465956,35.6761905 L167.465956,35.6761905 Z M173.356429,29.1809524 C172.742438,29.1809524 172.205197,29.352381 171.667955,29.6761905 C171.1499,30.0190476 170.746969,30.4761905 170.478348,31.0666667 C170.19054,31.6380952 170.037042,32.3238095 170.037042,33.0666667 L170.037042,33.2952381 C170.037042,34.4190476 170.363225,35.3142857 171.01559,35.9809524 C171.667955,36.647619 172.493005,36.9904762 173.529114,36.9904762 C174.814657,36.9904762 175.75483,36.5142857 176.388008,35.5428571 L175.601332,34.9333333 C175.371086,35.2380952 175.083278,35.4857143 174.757095,35.6761905 C174.430913,35.8666667 174.047169,35.9428571 173.586676,35.9428571 C172.953498,35.9428571 172.416256,35.7142857 171.994137,35.2571429 C171.572019,34.8 171.341772,34.1904762 171.322585,33.447619 L176.464757,33.447619 L176.464757,32.9142857 C176.464757,31.7142857 176.196136,30.7809524 175.639707,30.1333333 C175.083278,29.4857143 174.334977,29.1809524 173.356429,29.1809524 L173.356429,29.1809524 Z M175.179214,32.4 L171.380147,32.4 C171.456895,31.7142857 171.687142,31.1809524 172.032512,30.8 C172.397069,30.4190476 172.838374,30.2285714 173.356429,30.2285714 C173.893671,30.2285714 174.334977,30.4190476 174.641972,30.7619048 C174.968155,31.1238095 175.160027,31.6190476 175.179214,32.2857143 L175.179214,32.4 L175.179214,32.4 Z M179.630646,30.952381 C179.995203,30.4761905 180.494071,30.247619 181.146436,30.247619 C181.645303,30.247619 182.048235,30.4190476 182.393604,30.7238095 C182.738974,31.047619 182.911659,31.4285714 182.950033,31.9238095 L184.178015,31.9238095 C184.13964,31.1047619 183.832645,30.4571429 183.276216,29.9619048 C182.719787,29.447619 181.990673,29.2 181.146436,29.2 C180.455696,29.2 179.860893,29.352381 179.362025,29.6761905 C178.843971,29.9809524 178.460227,30.4380952 178.191606,30.9904762 C177.942172,31.5619048 177.788674,32.2285714 177.788674,32.952381 L177.788674,33.1809524 C177.788674,34.3619048 178.076482,35.2952381 178.690473,36 C179.304464,36.6857143 180.129514,37.0095238 181.165623,37.0095238 C181.683678,37.0095238 182.163358,36.8952381 182.623851,36.6666667 C183.084344,36.4380952 183.448901,36.1333333 183.717522,35.7333333 C184.00533,35.352381 184.13964,34.9142857 184.178015,34.4952381 L182.950033,34.4952381 C182.911659,34.8952381 182.719787,35.2571429 182.374417,35.5428571 C182.029047,35.8095238 181.626116,35.9428571 181.165623,35.9428571 C180.494071,35.9428571 179.976016,35.7142857 179.611459,35.2380952 C179.246902,34.7619048 179.074217,34.0952381 179.074217,33.2190476 L179.074217,32.9714286 C179.074217,32.0952381 179.246902,31.4095238 179.630646,30.952381 L179.630646,30.952381 Z M189.320187,29.1809524 C188.399201,29.1809524 187.670087,29.5238095 187.075283,30.2285714 L187.075283,26.152381 L185.770553,26.152381 L185.770553,36.8571429 L187.075283,36.8571429 L187.075283,31.4857143 C187.247968,31.1238095 187.497402,30.8190476 187.804397,30.6095238 C188.13058,30.3809524 188.495137,30.2666667 188.917255,30.2666667 C189.43531,30.2666667 189.819054,30.4 190.068488,30.647619 C190.298734,30.9142857 190.433045,31.3142857 190.452232,31.847619 L190.452232,36.8380952 L191.756962,36.8380952 L191.756962,31.8666667 C191.737775,30.0761905 190.931912,29.1809524 189.320187,29.1809524 L189.320187,29.1809524 Z M197.378814,29.1809524 C196.438641,29.1809524 195.69034,29.5428571 195.114724,30.2666667 L195.057162,29.3142857 L193.829181,29.3142857 L193.829181,36.8380952 L195.133911,36.8380952 L195.133911,31.4666667 C195.325783,31.1047619 195.556029,30.8 195.882212,30.5904762 C196.208394,30.3619048 196.572951,30.247619 196.99507,30.247619 C197.513125,30.247619 197.896869,30.3809524 198.146302,30.6285714 C198.395736,30.8952381 198.530047,31.2952381 198.530047,31.8285714 L198.530047,36.8190476 L199.834777,36.8190476 L199.834777,31.847619 C199.777215,30.0761905 198.971352,29.1809524 197.378814,29.1809524 L197.378814,29.1809524 Z M204.996136,29.1809524 C204.324584,29.1809524 203.72978,29.3333333 203.211726,29.6571429 C202.693671,29.9809524 202.271552,30.4380952 201.983744,31.0285714 C201.695936,31.6190476 201.542438,32.2857143 201.542438,33.0095238 L201.542438,33.1047619 C201.542438,34.2666667 201.868621,35.2 202.501799,35.9238095 C203.154164,36.6285714 203.979214,36.9904762 205.015323,36.9904762 C205.706063,36.9904762 206.300866,36.8380952 206.818921,36.5142857 C207.356163,36.1714286 207.759094,35.7142857 208.046902,35.1428571 C208.315523,34.5714286 208.449833,33.9047619 208.449833,33.1619048 L208.449833,33.0857143 C208.449833,31.9047619 208.142838,30.9714286 207.490473,30.2666667 C206.876482,29.5428571 206.032245,29.1809524 204.996136,29.1809524 L204.996136,29.1809524 Z M206.588674,35.1809524 C206.20493,35.6952381 205.686875,35.9428571 205.015323,35.9428571 C204.362958,35.9428571 203.844903,35.6952381 203.441972,35.1809524 C203.058228,34.6666667 202.866356,34.0190476 202.866356,33.1619048 C202.866356,32.2285714 203.058228,31.5047619 203.441972,30.9904762 C203.825716,30.4761905 204.362958,30.2285714 204.996136,30.2285714 C205.667688,30.2285714 206.166556,30.4761905 206.588674,31.0095238 C206.972418,31.5238095 207.16429,32.1904762 207.16429,33.0095238 C207.16429,33.9428571 206.972418,34.647619 206.588674,35.1809524 L206.588674,35.1809524 Z M210.349367,36.8571429 L211.654097,36.8571429 L211.654097,26.152381 L210.349367,26.152381 L210.349367,36.8571429 Z M216.968954,29.1809524 C216.297402,29.1809524 215.702598,29.3333333 215.184544,29.6571429 C214.666489,29.9809524 214.263558,30.4380952 213.97575,31.0285714 C213.687941,31.6190476 213.534444,32.2857143 213.534444,33.0095238 L213.534444,33.1047619 C213.534444,34.2666667 213.860626,35.2 214.493804,35.9238095 C215.146169,36.6285714 215.971219,36.9904762 217.007328,36.9904762 C217.698068,36.9904762 218.292871,36.8380952 218.810926,36.5142857 C219.328981,36.1714286 219.751099,35.7142857 220.01972,35.1428571 C220.307528,34.5714286 220.441839,33.9047619 220.441839,33.1619048 L220.441839,33.0857143 C220.441839,31.9047619 220.134843,30.9714286 219.482478,30.2666667 C218.8493,29.5428571 218.005063,29.1809524 216.968954,29.1809524 L216.968954,29.1809524 Z M218.561492,35.1809524 C218.177748,35.6952381 217.659694,35.9428571 216.988141,35.9428571 C216.316589,35.9428571 215.817722,35.6952381 215.41479,35.1809524 C215.031046,34.6666667 214.839174,34.0190476 214.839174,33.1619048 C214.839174,32.2285714 215.031046,31.5047619 215.41479,30.9904762 C215.798534,30.4761905 216.316589,30.2285714 216.968954,30.2285714 C217.621319,30.2285714 218.139374,30.4761905 218.542305,31.0095238 C218.945237,31.5238095 219.137109,32.1904762 219.137109,33.0095238 C219.137109,33.9428571 218.945237,34.647619 218.561492,35.1809524 L218.561492,35.1809524 Z M227.061426,30.152381 C226.543371,29.5047619 225.814257,29.1809524 224.893271,29.1809524 C223.991472,29.1809524 223.262358,29.5238095 222.705929,30.2095238 C222.168688,30.8952381 221.880879,31.8285714 221.880879,33.0095238 C221.880879,34.2285714 222.1495,35.2 222.705929,35.9047619 C223.262358,36.6095238 223.991472,36.9714286 224.874084,36.9714286 C225.775883,36.9714286 226.485809,36.6857143 227.003864,36.0952381 L227.003864,36.7428571 C227.003864,37.3904762 226.811992,37.8857143 226.466622,38.2285714 C226.121252,38.5904762 225.622385,38.7619048 224.989207,38.7619048 C224.183344,38.7619048 223.511792,38.4190476 222.936176,37.752381 L222.264624,38.5142857 C222.533245,38.9142857 222.936176,39.2380952 223.454231,39.4857143 C223.991472,39.7142857 224.509527,39.8285714 225.065956,39.8285714 C226.044504,39.8285714 226.831179,39.5619048 227.425983,38.9904762 C228.001599,38.4190476 228.289407,37.6571429 228.289407,36.6666667 L228.289407,29.3142857 L227.118987,29.3142857 L227.061426,30.152381 L227.061426,30.152381 Z M227.003864,34.7809524 C226.62012,35.5238095 226.025316,35.9047619 225.200266,35.9047619 C224.567089,35.9047619 224.068221,35.6571429 223.722851,35.1809524 C223.377482,34.6857143 223.204797,34.0380952 223.204797,33.1619048 C223.204797,32.2095238 223.377482,31.4857143 223.742039,31.0095238 C224.106596,30.5142857 224.586276,30.2666667 225.219454,30.2666667 C226.006129,30.2666667 226.600933,30.6285714 227.003864,31.352381 L227.003864,34.7809524 L227.003864,34.7809524 Z M234.65956,29.3142857 L232.894337,34.9714286 L230.994803,29.3142857 L229.57495,29.3142857 L232.280346,36.7619048 L231.992538,37.5238095 C231.819853,38 231.627981,38.3238095 231.378548,38.4952381 C231.148301,38.6666667 230.802931,38.7428571 230.361626,38.7428571 L229.997069,38.7238095 L229.997069,39.752381 L230.495936,39.847619 L230.726183,39.8666667 C231.743105,39.8666667 232.491406,39.2380952 232.971086,37.9809524 L236.021852,29.2761905 L234.65956,29.2761905 L234.65956,29.3142857 L234.65956,29.3142857 Z" id="text" fill="#002D63" fill-rule="nonzero"></path>
        </g>
    </g>
</svg>