<?xml version="1.0" standalone="no"?>
<!DOCTYPE svg PUBLIC "-//W3C//DTD SVG 20010904//EN"
 "http://www.w3.org/TR/2001/REC-SVG-20010904/DTD/svg10.dtd">
<svg version="1.0" xmlns="http://www.w3.org/2000/svg"
 width="407.000000pt" height="407.000000pt" viewBox="0 0 407.000000 407.000000"
 preserveAspectRatio="xMidYMid meet">
<metadata>
Created by potrace 1.11, written by Peter Selinger 2001-2013
</metadata>
<g transform="translate(0.000000,407.000000) scale(0.100000,-0.100000)"
fill="#000000" stroke="none">
<path d="M89 3747 c-18 -12 -44 -38 -56 -56 l-23 -34 0 -1605 0 -1606 21 -43
c11 -23 35 -53 52 -65 l32 -23 493 -3 492 -3 0 201 0 200 -344 0 -344 0 0
1324 0 1324 32 4 c17 1 172 3 344 2 l312 -1 0 203 0 204 -489 0 -488 0 -34
-23z"/>
<path d="M2980 3568 l0 -203 342 0 343 0 3 -1328 2 -1327 -345 0 -345 0 0
-200 0 -200 480 0 c401 0 486 2 509 14 41 22 89 81 96 118 3 18 4 752 3 1630
-3 1595 -3 1597 -24 1624 -11 15 -33 37 -48 48 -27 20 -40 21 -522 24 l-494 3
0 -203z"/>
<path d="M785 3061 c-3 -2 -5 -465 -5 -1028 l0 -1023 316 2 316 3 185 340
c101 187 241 445 310 573 69 128 129 232 134 230 5 -2 148 -259 318 -573 l308
-570 317 -3 316 -2 0 1025 0 1025 -320 0 -320 0 2 -430 c2 -237 1 -430 -2
-430 -3 1 -63 110 -134 243 -71 133 -140 259 -153 280 l-23 37 -310 0 -310 0
-23 -37 c-13 -21 -81 -145 -152 -276 -70 -130 -131 -240 -136 -243 -5 -3 -9
183 -9 428 l0 434 -310 0 c-171 0 -313 -2 -315 -5z"/>
</g>
</svg>
