<?xml version="1.0" encoding="utf-8"?>
<!-- Generator: Adobe Illustrator 22.1.0, SVG Export Plug-In . SVG Version: 6.00 Build 0)  -->
<svg version="1.1" id="Capa_1" xmlns="http://www.w3.org/2000/svg" xmlns:xlink="http://www.w3.org/1999/xlink" x="0px" y="0px"
	 viewBox="0 0 140.3 28" style="enable-background:new 0 0 140.3 28;" xml:space="preserve">
<title>Fill 4</title>
<desc>Created with Sketch.</desc>
<g id="Inicio">
	<g id="Desktop-HD-Copy" transform="translate(-251.000000, -50.000000)">
		<path id="Fill-4" d="M391.3,60.5c0-2.5-2-4.2-4.6-4.2c-2.6,0-4.6,1.7-4.6,4.2s2,4.2,4.6,4.2C389.3,64.7,391.3,63,391.3,60.5z
			 M390.7,60.5c0,2.2-1.7,3.7-4,3.7c-2.3,0-4-1.5-4-3.7s1.7-3.7,4-3.7C388.9,56.8,390.7,58.3,390.7,60.5z M388.7,59.4
			c0-0.9-0.7-1.3-1.6-1.3H385v4.6h0.7v-1.9h1.1l1.1,1.9h0.8l-1.1-2C388.2,60.6,388.7,60.1,388.7,59.4z M388,59.4
			c0,0.5-0.3,0.8-1.1,0.8h-1.3v-1.6h1.4C387.7,58.6,388,58.9,388,59.4z M316.9,57.6v12.5c0,1.8-3,1.8-3,0V57.6
			C314,55.8,316.9,55.8,316.9,57.6z M317.4,52c0,1-0.9,1.8-2,1.8c-1.1,0-2-0.8-2-1.8c0-1,0.9-1.8,2-1.8
			C316.5,50.2,317.4,51,317.4,52z M268.7,57.6v12.5c0,1.8-3,1.8-3,0V57.6C265.8,55.8,268.7,55.8,268.7,57.6z M269.2,52
			c0,1-0.9,1.8-2,1.8c-1.1,0-2-0.8-2-1.8c0-1,0.9-1.8,2-1.8C268.3,50.2,269.2,51,269.2,52z M354.2,57.6l0,10.1
			c0,0.8,2.4,1.4,4.2,1.4c1.8,0,4.2-0.6,4.2-1.4V57.6c0-1.8,3-1.8,3,0V74c0,2.9-4.7,4-7.2,4c-1.5,0-3.3-0.3-4.8-1
			c-1.8-0.8-0.4-3.2,1.4-2.4c0.9,0.4,2.3,0.7,3.4,0.7c0.9,0,3.8-0.4,4.2-1.3l0-3.1c-1.4,0.6-3.1,0.8-4.2,0.8c-2.5,0-7.2-1.1-7.2-4
			v-10C351.2,55.8,354.2,55.8,354.2,57.6z M253.1,68.3c0,0,0.5,0.2,1.2,0.4c0.8,0.2,1.8,0.4,2.8,0.4c1.3,0,3.7-0.2,3.7-1.4v-1.1
			c0-2.2-9.8-0.3-9.8-5.1V60c0-3.1,3.9-3.9,6.5-3.9c1.6,0,4,0.3,5.4,1c1.8,0.8,0.5,3-1.4,2.3c0,0-1.7-0.7-4.1-0.7
			c-0.7,0-3.6,0.2-3.6,1.2v1.5c0,0.6,0.9,1,2.3,1.2c2.9,0.5,7.5,0.6,7.5,4v0.9c0,3.3-3.8,4.3-6.7,4.3c-1.6,0-3.6-0.4-5.1-0.9
			C250.1,70.1,251.2,67.6,253.1,68.3z M292,70.1l0-10c0-0.8-2.1-1.3-3.7-1.3c-1.3,0-3.7,0.6-3.7,1.3l0,10c0,1.8-3,1.8-3,0v-10
			c0-0.8-2.2-1.3-3.7-1.3c-1.3,0-3.7,0.6-3.7,1.3v10c0,1.8-3,1.8-3,0v-9.9c0-2.8,4.2-4,6.7-4c1.5,0,3.8,0.5,5.2,1.5
			c1.4-1,3.7-1.5,5.2-1.5c2.5,0,6.7,1.2,6.7,4v9.9C295,71.9,292,71.9,292,70.1z M319.7,60.2c0-3,4.7-4,7.2-4c2.5,0,7.2,1.1,7.2,4
			v7.4c0,2.9-4.7,4-7.2,4c-2.5,0-7.2-1.1-7.2-4V60.2z M322.6,60.2v7.6c0,0.8,2.4,1.4,4.2,1.4c1.8,0,4.2-0.6,4.2-1.4v-7.6
			c0-0.8-2.5-1.4-4.2-1.4C325.1,58.8,322.6,59.3,322.6,60.2z M300.3,60.2v7.6c0,0.8,2.4,1.4,4.2,1.4c1.8,0,4.2-0.6,4.2-1.4v-7.6
			c0-0.8-2.5-1.4-4.2-1.4C302.7,58.8,300.3,59.3,300.3,60.2z M300.3,51.3V57c1.1-0.6,3.1-0.9,4.2-0.9c2.5,0,7.2,1.1,7.2,4v7.4
			c0,2.9-4.7,4-7.2,4c-2.5,0-7.2-1.1-7.2-4V51.3C297.3,49.6,300.3,49.6,300.3,51.3z M338.2,68.3c0,0,0.5,0.2,1.2,0.4
			c0.8,0.2,1.8,0.4,2.8,0.4c1.3,0,3.7-0.2,3.7-1.4v-1.1c0-2.2-9.8-0.3-9.8-5.1V60c0-3.1,3.9-3.9,6.5-3.9c1.6,0,4,0.3,5.4,1
			c1.8,0.8,0.5,3-1.4,2.3c0,0-1.7-0.7-4.1-0.7c-0.7,0-3.6,0.2-3.6,1.2v1.5c0,0.6,0.9,1,2.3,1.2c2.9,0.5,7.5,0.6,7.5,4v0.9
			c0,3.3-3.8,4.3-6.7,4.3c-1.6,0-3.6-0.4-5.1-0.9C335.2,70.1,336.4,67.6,338.2,68.3z M369.9,68.3c0,0,0.5,0.2,1.2,0.4
			c0.8,0.2,1.8,0.4,2.8,0.4c1.3,0,3.7-0.2,3.7-1.4v-1.1c0-2.2-9.8-0.3-9.8-5.1V60c0-3.1,3.9-3.9,6.5-3.9c1.6,0,4,0.3,5.4,1
			c1.8,0.8,0.5,3-1.4,2.3c0,0-1.7-0.7-4.1-0.7c-0.7,0-3.6,0.2-3.6,1.2v1.5c0,0.6,0.9,1,2.3,1.2c2.9,0.5,7.5,0.6,7.5,4v0.9
			c0,3.3-3.8,4.3-6.7,4.3c-1.6,0-3.6-0.4-5.1-0.9C366.9,70.1,368.1,67.6,369.9,68.3z"/>
	</g>
</g>
</svg>
